<svg width="23" height="23" fill="none" xmlns="http://www.w3.org/2000/svg"><g clip-path="url(#clip0_2_174)"><path d="M7.486 11.121a3.642 3.642 0 017.285 0 3.642 3.642 0 01-7.285 0zm-1.97 0a5.61 5.61 0 005.612 5.609 5.61 5.61 0 005.612-5.609 5.61 5.61 0 00-5.612-5.608 5.61 5.61 0 00-5.611 5.608zm10.134-5.83a1.31 1.31 0 101.312-1.31 1.313 1.313 0 00-1.312 1.31zm-8.937 14.72c-1.065-.048-1.644-.225-2.03-.375a3.396 3.396 0 01-1.256-.817 3.37 3.37 0 01-.818-1.256c-.15-.384-.327-.963-.376-2.028-.053-1.151-.063-1.497-.063-4.413 0-2.917.011-3.262.063-4.414.049-1.065.228-1.643.376-2.028.199-.51.436-.874.818-1.256.382-.383.746-.62 1.257-.817.384-.15.964-.328 2.03-.376 1.151-.053 1.497-.064 4.414-.064s3.264.012 4.416.064c1.066.048 1.644.227 2.03.376.51.197.874.435 1.257.817.383.382.619.746.817 1.256.15.384.328.963.376 2.028.053 1.152.064 1.497.064 4.414 0 2.916-.01 3.261-.064 4.413-.048 1.065-.227 1.644-.376 2.028-.198.51-.435.874-.817 1.256a3.397 3.397 0 01-1.257.817c-.385.15-.964.327-2.03.375-1.152.053-1.498.064-4.416.064s-3.263-.01-4.415-.064zM6.623.266C5.459.32 4.664.503 3.97.773a5.36 5.36 0 00-1.936 1.26 5.336 5.336 0 00-1.26 1.935c-.27.694-.455 1.488-.508 2.65C.212 7.784.2 8.157.2 11.122c0 2.966.012 3.339.066 4.503.053 1.163.238 1.957.508 2.651a5.34 5.34 0 001.26 1.935c.608.607 1.217.98 1.936 1.26.696.27 1.49.454 2.653.507 1.166.053 1.537.066 4.505.066s3.34-.012 4.506-.066c1.163-.053 1.957-.237 2.652-.507a5.376 5.376 0 001.936-1.26 5.35 5.35 0 001.26-1.935c.27-.694.456-1.488.508-2.65.053-1.166.065-1.537.065-4.504 0-2.965-.012-3.338-.065-4.502-.053-1.163-.237-1.957-.507-2.651a5.37 5.37 0 00-1.261-1.935 5.347 5.347 0 00-1.935-1.26c-.695-.27-1.49-.455-2.652-.507C14.468.213 14.096.2 11.128.2s-3.34.012-4.506.066z" fill="#090909"/></g><defs><clipPath id="clip0_2_174"><path fill="#fff" d="M0 0h23v23H0z"/></clipPath></defs></svg>