<svg width="20" height="20" fill="none" xmlns="http://www.w3.org/2000/svg"><g clip-path="url(#clip0_2_177)" fill="#090909"><path d="M0 20l1.435-5.33A9.85 9.85 0 01.399 7.843a9.87 9.87 0 013.7-5.833 9.915 9.915 0 0112.94.836 9.855 9.855 0 011.005 12.895 9.9 9.9 0 01-5.8 3.766 9.92 9.92 0 01-6.854-.945L0 20zm5.65-3.432l.333.197a8.017 8.017 0 009.689-1.175 7.962 7.962 0 001.338-9.644 7.993 7.993 0 00-3.862-3.406 8.019 8.019 0 00-5.143-.35 8 8 0 00-4.29 2.853 7.966 7.966 0 00-1.653 4.87 7.874 7.874 0 001.17 4.136l.208.344-.802 2.975 3.011-.8z"/><path fill-rule="evenodd" clip-rule="evenodd" d="M13.74 11.282a1.652 1.652 0 00-1.413-.321c-.367.152-.605.727-.842 1.014a.35.35 0 01-.452.102 6.396 6.396 0 01-3.197-2.733.383.383 0 01.05-.53c.265-.261.46-.585.565-.941a2.047 2.047 0 00-.26-1.127 2.625 2.625 0 00-.819-1.234 1.132 1.132 0 00-1.214.186 2.491 2.491 0 00-.865 1.972c.001.21.028.417.08.62.13.487.332.952.598 1.38.192.329.401.647.627.953a9.624 9.624 0 002.718 2.513c.532.333 1.1.603 1.695.806a3.76 3.76 0 001.971.31 2.37 2.37 0 001.785-1.325c.098-.21.128-.447.085-.676-.101-.467-.729-.743-1.113-.969z"/></g><defs><clipPath id="clip0_2_177"><path fill="#fff" d="M0 0h20v20H0z"/></clipPath></defs></svg>