<svg width="123" height="134" fill="none" xmlns="http://www.w3.org/2000/svg"><path d="M48.871 79.879c2.334.018 4.635-.17 5.641-2.307.529-1.086.529-2.323 0-3.308-.41-.763-1.142-1.373-2.129-1.63 1.293-.745 2.248-2.32 1.565-3.746-.757-1.656-3.14-2.1-5.37-1.505l-.2.961L46.06 79.88h2.812zm1.891-11.857c.854.136 1.536.662 1.536 1.748.033 1.577-.99 2.442-2.404 2.612l.868-4.36zm-1.09 5.378c4.091-.34 3.698 5.394-1.039 5.326l1.04-5.326zm24.354-2.953c.374 0 .7-.118.971-.374a1.24 1.24 0 00.425-.949c0-.373-.135-.68-.407-.95a1.254 1.254 0 00-.939-.39c-.391 0-.698.135-.971.39a1.407 1.407 0 00-.392.95c0 .392.12.696.358.95.254.255.58.373.955.373zm-13.31 7.837c.18 2.37 2.912 2.088 4.559.227.418.92 1.234 1.523 2.53 1.47 1.38-.05 2.566-.715 3.497-1.762.305 3.037 4.449 1.89 5.637-1.342h-.665c-.579 1.663-3.119 3.171-2.726 1.137.392-2.001.783-3.75 1.33-6.618h-2.353l-1.124 5.378a6.08 6.08 0 00-.08.49c-.822.96-1.946 1.892-3.056 1.462-.784-.305-1.227-1.323-.971-3.07.17-1.087.663-2.478 1.635-3.172.375-.273.733-.323.939-.188.204.136.254.68-.139 1.425l.786 1.374c.086-.134.17-.253.239-.405.51-.951.34-2.291-.529-2.97-.596-.476-1.483-.543-2.385-.17-1.533.629-2.437 2.308-2.763 3.937-.169.821-.183 1.64-.025 2.35-.905 1.161-2.495 1.834-2.19.261.394-1.95.751-3.462 1.28-6.055l.135-.647h-4.31c-3.053.103-4.4 2.835-4.636 5.566-.306 3.511 3.577 4.004 5.385 1.322zm-2.78-2.628c.597-2.75 2.609-4.58 3.648-2.698l-.819 4.208c-2.35 3.153-3.476 1.56-2.828-1.51zM57.4 93.179a5.192 5.192 0 00-.629 1.325 4.742 4.742 0 00-.206 1.356c0 .39.069.763.188 1.137.12.356.29.678.562.966.257.256.579.477.972.645.409.152 1.04.238 1.585.238.699 0 1.448-.12 2.095-.374a5.55 5.55 0 001.67-1.068 5.411 5.411 0 001.262-1.578c.29-.474.528-1.018.683-1.577.544-.153 1.788-.594 2.334-.781.119-.56.288-1.578.391-2.155-1.67.917-4.397 1.763-6.272 1.866-.084.51-.187 1.086-.29 1.58a15.716 15.716 0 002.965-.342c-1.396 3.513-5.555 3.954-5.555 1.206 0-2.393 1.55-3.46 3.904-3.58l.306-1.171c-1.346.085-2.18.409-2.52-.932a2.519 2.519 0 01-.103-.73c0-.272.05-.56.135-.847.818-2.766 3.886-1.17 2.129 1.253.36.289 1.16.797 1.722 1.156.938-1.868.564-4.99-2.25-4.99-.544 0-1.037.12-1.498.325-.46.219-.852.49-1.176.846-.324.358-.58.765-.784 1.172a3.21 3.21 0 00-.273 1.305c0 .374.086.747.255 1.103.17.356.427.663.802.934-1.039.272-1.79.83-2.403 1.712zm-18.455 11.256l-1.127 1.326c-3.22 3.785-6.561 7.686-9.749 11.417h1.637l2.931-3.461h3.902l-.767 3.478h2.387c.818-4.274 1.736-8.531 2.555-12.756-.605 0-1.157-.008-1.769-.004zm-2.083 7.841h-2.981l4.038-4.751c-.356 1.579-.715 3.156-1.057 4.751zm10.761-1.827c-.187-.508-.41-.949-.785-1.256-.409-.338-.971-.559-1.72-.559-.46 0-.886.119-1.297.304l.717-3.614h-2.25l-2.403 11.877h2.779c2.18 0 3.8-.322 4.772-3.648.358-1.085.425-2.205.187-3.104zm-1.944 2.07c-.17 1.645-1.208 4.8-3.22 3.256l1.193-5.87c.868-.423 1.516-.067 1.806.593.22.441.308 1.206.22 2.021zm8.845-3.325c-.409-.338-.97-.56-1.721-.56-.461 0-.886.119-1.294.305l.714-3.614h-2.25l-2.402 11.876h2.778c2.181 0 3.8-.322 4.772-3.647.357-1.086.426-2.205.186-3.105-.187-.508-.407-.949-.783-1.255zm-1.157 3.325c-.171 1.645-1.212 4.801-3.222 3.257l1.194-5.87c.868-.424 1.515-.068 1.805.593.223.441.306 1.206.223 2.02zm5.997-1.951l.358-1.85h-2.334l-1.722 8.484h2.402l.957-4.902c.868-1.409 2.129-2.716 3.51-1.714l1.584-1.309c-2.232-1.322-3.68-.49-4.755 1.291zm29.072-2.799c.375 0 .7-.117.973-.374.272-.253.425-.557.425-.949 0-.373-.137-.68-.41-.949a1.244 1.244 0 00-.937-.391c-.391 0-.697.135-.971.391a1.393 1.393 0 00-.392.949c0 .392.12.696.358.949.254.257.58.374.954.374zm2.25 6.429c-.578 1.661-3.119 3.172-2.726 1.137.392-2.001.783-3.751 1.33-6.618h-2.352l-1.125 5.378a6.29 6.29 0 00-.08.491c-.822.96-1.946 1.891-3.056 1.461-.784-.305-1.225-1.323-.971-3.069.17-1.087.663-2.479 1.635-3.173.375-.273.733-.323.937-.188.206.136.256.68-.137 1.427l.786 1.373c.086-.135.17-.254.237-.406.512-.951.342-2.291-.526-2.969-.598-.477-1.484-.544-2.386-.17-1.535.628-2.437 2.307-2.762 3.936a6.216 6.216 0 00-.13 1.532c-.837 1.037-2.055 2.174-3.261 1.707-.785-.305-1.227-1.323-.971-3.069.17-1.087.665-2.479 1.636-3.173.376-.273.733-.323.936-.188.204.136.258.68-.135 1.427l.782 1.373c.086-.135.171-.254.239-.406.512-.951.343-2.291-.528-2.969-.597-.477-1.482-.544-2.384-.17-1.536.628-2.439 2.307-2.761 3.936-.17.821-.187 1.64-.025 2.35-.907 1.161-2.496 1.834-2.191.26.391-1.95.75-3.46 1.277-6.054l.139-.647H67.8c-3.05.103-4.397 2.835-4.635 5.566-.308 3.512 3.577 4.004 5.385 1.323.179 2.369 2.91 2.088 4.56.227.417.919 1.233 1.522 2.528 1.469 1.548-.055 2.852-.885 3.823-2.156.29 1.29 1.16 2.222 2.756 2.156 1.38-.049 2.566-.715 3.497-1.762.306 3.037 4.448 1.89 5.637-1.342h-.665zm-22.085.289c-2.352 3.155-3.476 1.56-2.83-1.509.597-2.75 2.608-4.581 3.648-2.699l-.818 4.208z" fill="#B2282D"/><path d="M9.514 30.454c.073.247.146.49.226.732.15.46.56.802 1.059.802.026 0 .055 0 .083-.004.345.314.904.361 1.313.137a2.74 2.74 0 00.299-.195c.037.002.074.004.112.002.797-.036 1.5-.44 1.91-1.127.411-.688.406-1.489.258-2.254a6.77 6.77 0 00-1.83-3.465.483.483 0 00-.253-.142 34.077 34.077 0 00-2.34-5.229 57.4 57.4 0 00.037-1.762c.035-.197.07-.391.1-.584.175-1.038.321-2.08.467-3.122.185-.271.365-.54.516-.829.297-.565.573-1.131.827-1.716.46-1.052.913-2.112 1.509-3.099.556-.918 1.207-1.77 1.907-2.587.743-.864 1.617-1.659 2.252-2.604.416-.622-.424-1.49-1.053-1.049-.732.515-1.376 1.183-1.979 1.863-.02-.003-.039-.009-.057-.012-.36-.218-.85-.236-1.23.117a29.445 29.445 0 00-2.258 2.356 33.04 33.04 0 00-1.718 1.63.59.59 0 00-.104.742 26.25 26.25 0 00-.431.65c-.273.425-.166.865.112 1.168l-.052.098c-.408-.013-.824.237-.922.658-.18.769-.387 1.513-.512 2.292-.126.763-.226 1.53-.304 2.298a31.828 31.828 0 00-.144 4.473c.117 3.034.564 6.141 1.537 9.024.114.338.355.61.663.738zm1.642 6.666c-.302-1.145-.405-2.38-.827-3.49-.114-.3-.509-.306-.62 0-.41 1.107-.33 2.409-.295 3.569.043 1.275.257 2.546.541 3.79.557 2.42 1.367 4.766 2.174 7.112.196.57.769.946 1.379.782.555-.153.98-.803.783-1.375-.798-2.291-1.585-4.593-2.233-6.933-.319-1.145-.596-2.303-.902-3.454zm19.489-3.793c.155.1.312.17.468.214-.028.39.162.788.51.993.542.314 1.091.073 1.438-.375a25.258 25.258 0 002.259-3.487c.242-.028.447-.179.603-.38.151-.2.324-.38.486-.57.23-.272.386-.6.58-.895.31-.47.606-.937.973-1.364.79-.915 1.748-1.684 2.396-2.718.6-.956.868-2.235.496-3.325-.414-1.213-1.504-1.927-2.768-1.994a3.596 3.596 0 00-.821.056c-.582-.214-1.276-.17-1.808.144-.661.388-1.058 1.046-1.38 1.716a1.13 1.13 0 00-.12.512 3.67 3.67 0 00-.48.726c-.617 1.24-.777 2.523-.557 3.883.049.29.098.676.06.903a3.244 3.244 0 01-.202.61c-.267.557-.633 1.054-.928 1.593-.288.526-.552 1.084-.67 1.673l-.535.245c-.773.355-.617 1.443 0 1.84zm6.35-.152c-.66.163-1.025.775-1.14 1.402-.136.731-.16 1.373.328 1.978a.73.73 0 00.253.195c.188.214.418.386.669.467.206.066.404.082.59.055a.748.748 0 00.833.26c.843-.27.95-1.156.694-1.892-.013-.032-.023-.066-.038-.096.018-.115.027-.227.025-.337-.021-1.12-.973-2.34-2.215-2.032zM25.46 29.076a1.42 1.42 0 00-.719.957c-.146.662.175 1.366.733 1.74.587.395 1.373.374 1.971.01.676-.416 1.117-1.26.882-2.044-.236-.803-1.17-1.573-2.04-1.334a1.34 1.34 0 00-.827.671zm4.591 20.757c.182-.67-.355-1.582-1.14-1.491-.16.017-.313.05-.457.086.007-.122.01-.247.003-.372a1.244 1.244 0 00-.295-.758c.187-.01.36-.063.521-.148.171.173.397.292.64.33.1.217.289.405.49.486.436.174.864.009 1.126-.368.783-1.126 1.291-2.385 1.663-3.705a.846.846 0 00.021-.092c.262-.788.493-1.583.712-2.385a1.058 1.058 0 00-.41-1.131 1.033 1.033 0 00-.718-1.047.987.987 0 00-.413-.574 1.03 1.03 0 00-.39-.63c-.316-.236-.828-.308-1.184-.092-.314-.179-.71-.215-1.033-.002l-.05.035a1.154 1.154 0 00-.863-.178c-.712.147-1.124.74-1.492 1.31l-.123.2a.876.876 0 00-.626.422 16.995 16.995 0 00-1.352 2.624.38.38 0 00-.3.24c-.213.622-.417 1.24-.561 1.883-.052.235-.112.464-.166.694a1.05 1.05 0 00-.311.12 1.135 1.135 0 00-.436-.327c-.557-.223-1.069-.005-1.412.46-.075.101-.15.204-.22.306-.2-.127-.454-.129-.65.118-.808 1.01-1.571 2.034-2.245 3.137-.669 1.102-1.213 2.246-1.718 3.43-1.027 2.409-2.009 4.959-2.3 7.574a8.556 8.556 0 00.633 4.362c.087.206.237.35.418.442.007.392.055.785.15 1.176.092.384.35.634.658.752.106.245.3.445.59.562.114.044.233.072.354.082.146.13.318.228.484.275.551.15 1.017-.123 1.341-.543l.054-.071c.192.037.395.036.587-.007l.007.005c1.604.769 2.844-.7 3.762-1.928a.938.938 0 00.304-.232c1.55-1.806 2.85-3.777 3.796-5.964.477-1.103.89-2.23 1.2-3.39.238-.892.524-1.907.455-2.863.34-.924.64-1.86.896-2.813zm13.561 6.182a.899.899 0 00-.465-.59l-.117-.124c-.534-.522-1.235-.821-1.92-.373-.5.327-.873.829-1.371 1.17-.26.18-.585.417-.916.581a1.15 1.15 0 00-.407-.228.999.999 0 00-1.176.563c-.123.281-.068.582-.146.87-.087.315-.281.545-.475.803-.523.698.452 1.442 1.1 1.093.001.002.005.005.005.009l.07-.057a2.725 2.725 0 00.765-.939l.19-.226c.033-.005.069-.01.102-.02.491-.133.993-.44 1.422-.708.445-.274.868-.586 1.266-.92.011.084.027.167.045.254.21.96 1.76.972 1.963 0 .056-.267.107-.501.088-.753.01-.125.01-.258-.023-.405zm14.653-2.423c-.667.04-1.333.103-2 .15-1.257.093-2.553.169-3.809-.012a8.902 8.902 0 01-1.602-.395c-.582-.2-1.12-.561-1.758-.536-.823.03-1.567.64-1.6 1.489-.027.689.423 1.259.99 1.604.557.34 1.245.554 1.873.77.971.718 2.2.861 3.384.812.066-.004.13-.008.194-.01.15 0 .297-.006.437-.028 1.003-.076 2.007-.237 2.964-.536 1.008-.32 3.186-.997 2.79-2.426-.241-.87-1.116-.928-1.863-.882zm-6.45-9.322c.197.527.425 1.055.743 1.52.644.952 1.655 1.538 2.34 2.43.302.392.75.62 1.243.406.471-.207.674-.671.574-1.167-.135-.675-.706-1.164-1.22-1.575-.477-.382-.943-.766-1.373-1.205-.742-.751-1.324-1.945-2.407-2.264-.274-.08-.609.203-.497.493.184.462.422.894.596 1.362zM26.98 91.581a12.1 12.1 0 01-.774-.144 1.27 1.27 0 00-.226-.106 39.444 39.444 0 01-2.506-.965 22.277 22.277 0 00-2.379-1.452.966.966 0 00-.855-.039c-.274-2.323-.637-4.64-.938-6.957a1.069 1.069 0 00-.064-.26l-.007-.413c.29-1.004.571-2.011.84-3.02a.89.89 0 00.165-.384c.059-.304.116-.61.172-.915.255-1.011.497-2.024.717-3.04.267-1.231.575-2.44.013-3.632-.283-.603-1.021-.599-1.477-.246a1.009 1.009 0 00-.231-.029.974.974 0 00-.366.076 2.066 2.066 0 00-.214-.345c-.416-.54-1.09-.568-1.485-.191a1.185 1.185 0 00-.56-.089l-.11-.625c-.191-1.032-1.8-.763-1.806.243-.002.304-.004.607-.008.912a.964.964 0 00-.238-.002c-.181-.489-.658-.643-1.082-.53-.25-.768-.604-1.422-1.542-1.533-.336-.04-.688.22-.846.537a4.782 4.782 0 00-.767-1.424c-.573-.726-1.772.064-1.516.878.292.939.58 1.883.865 2.825.066.469.132.942.188 1.414.017.603.048 1.199.114 1.79.063.564.134 1.127.205 1.69a.844.844 0 00-.13.489c.013.407.034.815.059 1.222a.803.803 0 00-.552.835c.121 2.272.808 4.435 1.639 6.538.75 1.899 1.414 4.021 3.136 5.27.443.322.914.122 1.197-.237.28.244.608.414 1.017.435.027.002.055.002.084.002a.987.987 0 00.51.32c.212.41.778.498 1.207.329.03.129.058.26.087.389.154.708 1.001.852 1.524.545.112.1.228.2.338.303.084.076.166.152.247.228-.023.197.01.41.114.618.836 1.658 1.99 3.308 4.033 3.391a.87.87 0 00.818-.416c.17.043.35.045.529-.003.409-.114.843-.569.782-1.022-.015-.12-.032-.237-.048-.356a2.767 2.767 0 00-.042-.839c.057-.022.114-.04.169-.064.434-.167.766-.512.766-1 0-.42-.32-.93-.766-1.001zm8.694-1.89c-.213-.142-.487-.195-.802-.103a2.463 2.463 0 00-1.076.641 1.063 1.063 0 00-.297.717c-.925 1.196-1.65 2.533-1.512 4.109.058.69.23 1.35.43 2.004a1.09 1.09 0 00-.165-.078c-.192-.711-1.453-.809-1.62.025a31.3 31.3 0 00-.098.402c-.045.16-.098.315-.159.468-.13.263-.261.522-.37.795-.128.324.116.717.413.835l.044.016a.943.943 0 00.461.296c.032.342.287.634.601.781a.974.974 0 00.438.277l.018.132c.06.392.565.763.96.728a2.435 2.435 0 001.075-.358c.414-.025.841-.289.925-.721.354-1.855-.504-3.444-.863-5.215-.203-.994.094-1.853.594-2.634.15.354.484.64.98.683l.242.016c.013.004.023.01.034.014a5.04 5.04 0 002.471.25c.398.012.791-.03 1.158-.232 1.1-.61 1.181-2.054.468-2.987-1.021-1.334-2.773-1.157-4.35-.86zm41.529-37.705c-.743-.2-1.346.205-1.764.786-.353.489-.675.995-1.037 1.477-.23.304-.47.602-.717.892-.077.068-.153.14-.232.215-.585.338-1.008 1.055-1.415 1.553-.364.444-.436 1.068 0 1.501.4.4 1.11.416 1.508 0 .34-.352.667-.717.985-1.087.1-.04.201-.087.303-.144.496-.277.888-.683 1.272-1.094.401-.432.76-.908 1.108-1.386.388-.532.749-1.103.695-1.789-.032-.423-.277-.807-.706-.924zm-.146 1.882l.006-.01c.056-.213.254-.018-.006.01zm-3.3-5.571c.306.416.624.823.935 1.234.28.365.678.595 1.151.468.411-.114.78-.539.75-.98-.061-.86-.37-1.77-1.041-2.353a4.28 4.28 0 00-.701-.488 3.751 3.751 0 00-.344-.4c-.86-.863-2.129.226-1.625 1.248.22.45.58.866.875 1.271zm6.103 6.398c-.419.418-.709 1.095-.882 1.645-.304.969.96 1.608 1.653.957.237-.223.386-.512.363-.845a1.23 1.23 0 00-.044-.239c.008-.174.017-.35.03-.522.007-.123.044-.27.042-.395a.49.49 0 00.09-.358c-.109-.65-.867-.627-1.253-.243zm5.692 1.91c-.142-.32-.587-.553-.928-.531-.304.017-.543.102-.762.313-.09.088-.172.207-.23.338a.34.34 0 00-.21.483c.083.17.12.351.21.523.09.164.17.333.25.503.117.242.226.487.35.726a2.686 2.686 0 00.153.283c.04.071.091.133.148.191l.005.007v-.001a1 1 0 00.947.25c.446-.121.667-.505.715-.936.043-.363-.112-.75-.22-1.096a9.288 9.288 0 00-.428-1.053zm9.898 2.396c-.039.39-.078.776-.114 1.163-.048.48.281.801.682.923.032.335.263.63.562.777l-.043.438c-.087.875 1.142 1.21 1.672.71l.032.083c.07.39.386.645.748.735a.95.95 0 00.268.264l.148.954c.067.441.581.758.998.758l.016-.002c.316.648 1.261.746 1.693.137a.879.879 0 00.553.459c.107.352.472.633.82.676a.95.95 0 00.918-.407c.299-.038.589-.202.721-.47.007-.012.014-.028.021-.043.315-.013.614-.16.756-.463l.066-.147c.381.1.815-.02 1.087-.441 1.307-2.017 1.919-4.473 1.681-6.866-.039-.401-.24-.764-.617-.924.017-.435.026-.873.026-1.31a.956.956 0 00-.412-.802c.019-.746-.04-1.488-.264-2.196-.163-.517-.72-.774-1.201-.7a.963.963 0 00-.227-.232l.009-.363a.962.962 0 00-.466-.848c.014-.37.023-.74.021-1.112 0-.247-.103-.483-.263-.672.003-.027.003-.056.007-.082.051-.547.162-1.148.05-1.691-.141-.677-.619-1.047-1.29-1.125-.279-.033-.598.14-.797.378a.853.853 0 00-.347-.227l-.019-.673c-.038-1.317-2.067-1.326-2.062 0 .002.264.003.532.007.795a3.141 3.141 0 00-.068-.138c-.311-.604-1.133-.563-1.528-.115a.966.966 0 00-.52-.055c.012-.32.012-.641 0-.962.072-.975.003-1.962-.197-2.93a.978.978 0 00-.475-.632 12.455 12.455 0 00-.675-1.603c-.152-.3-.475-.487-.813-.536a5.066 5.066 0 00-.803-1.213.94.94 0 00-1.017-.273c-.043-.103-.082-.21-.123-.31-.205-.512-.686-.87-1.26-.712-.42.113-.707.49-.743.903a.974.974 0 00-.051.032c-.449-.193-.929-.025-1.25.4-.104.138-.168.29-.204.453a1.117 1.117 0 00-.653.362c-.47.526-.222 1.262-.13 1.886.163 1.078.422 2.144.773 3.176.18.868.407 1.729.7 2.563.216.607.554 1.194 1.235 1.358.719.173 1.44-.188 1.841-.782.025-.036.046-.073.071-.11.152.25.411.401.694.453-.15.083-.281.209-.377.366a1.068 1.068 0 00-.285-.04.947.947 0 00-.81.423.464.464 0 00-.147.281l-.002.015c-.035.097-.06.201-.07.308a36.92 36.92 0 00-.063.492 82.947 82.947 0 00-.285 1.907c-.13.956-.297 1.89-.304 2.85-.001.291.13.559.333.748-.007.427.21.83.619.995-.055.51-.112 1.015-.166 1.522-.058.52.335.85.783.94.1.232.297.421.53.524zm14.308-11.116c.445.12 1.098-.067 1.293-.524.632-1.477 1.167-2.982 1.551-4.544a26.35 26.35 0 00.456-2.247c.128-.798.341-1.702.272-2.51-.048-.57-.404-1.06-1.003-1.132-.548-.066-1.133.257-1.27.823-.073.31-.112.629-.143.95l-.172.48a45.075 45.075 0 00-.813 2.471c-.503 1.668-.895 3.393-1.011 5.135-.032.493.379.973.84 1.098zm-24.35-14.593c-.78-.002-1.341.618-1.718 1.225-.399.645-.568 1.507-.145 2.186.422.676 1.379 1.02 2.06.494.27-.206.402-.47.426-.726.46-.46.803-1.086.827-1.585.04-.825-.595-1.589-1.45-1.594zm10.195-1.107c.27.238.678.264.943 0a.7.7 0 00.174-.637c.43-.142.82-.496 1.048-.855.338-.539.313-1.196-.114-1.675a1.593 1.593 0 00-1.63-.468c-.586.174-1.015.74-1.116 1.325-.077.442.014 1.013.307 1.388.004.343.125.689.388.922zm-12.978-9.039c-.078.298-.109.594-.05.861.086.395.303.636.573.75-.002.01-.005.017-.009.027-.15.41.11.804.424 1.036.459.339.955.294 1.431.079.102.072.205.123.314.16-.007.181.005.362.046.532.105.43.377.765.733.945-.021.168-.043.339-.059.51-.034.39.284.79.628.927a.819.819 0 00.135.044c.01.122.021.242.037.363.048.356.265.704.56.892.003.161.004.324.013.487a1.085 1.085 0 001.14 1.023c.164.376.586.576.997.567a6.404 6.404 0 01-.082.232c-.21.544.233 1.183.758 1.327.606.166 1.124-.206 1.332-.753.357-.947.384-1.965.16-2.948a.937.937 0 00-.341-.547l.007-.257c.01-.476-.344-.896-.79-1.024a4.39 4.39 0 00.01-.304.943.943 0 00-.279-.678 4.03 4.03 0 00.054-1.332c-.049-.37-.201-.702-.514-.884a7.3 7.3 0 00.124-.63 1.295 1.295 0 00-.036-.593c.082-.26.15-.521.201-.79a1.165 1.165 0 00-.11-.783c.02-.03.04-.062.056-.092.451-.795-.331-1.702-1.14-1.479a1.055 1.055 0 00-.647-.39c-.21-.465-.822-.78-1.314-.465-.07.044-.135.09-.201.135a1.059 1.059 0 00-.297-.26 1.07 1.07 0 00-.541-.167 1.04 1.04 0 00-.062-.073.8.8 0 00-.828-.175.757.757 0 00-.188-.206c-.23-.17-.624-.25-.875-.061-.59.444-1.078 1.037-1.286 1.737-.408.526-.621 1.13-.449 1.794.054.21.19.368.365.463zm32.615-10.84c-.059-.588-.464-1.093-1.099-1.093-.007 0-.016 0-.023.002a12 12 0 00-1.244-2.146c-1.243-1.72-2.739-3.266-4.173-4.828-.398-.437-1.145-.403-1.553 0a1.023 1.023 0 00-.309.797c-.096.125-.121.292.005.466.281.39.581.77.818 1.188.258.454.482.882.806 1.293.566.712 1.174 1.387 1.743 2.093.116.145.23.29.34.438-.023.198.005.412.105.63a15.782 15.782 0 011.286 4.875c.167 1.62.39 3.34.045 4.939-.32 1.475-1.258 2.523-2.099 3.73-.797 1.15-1.825 3.188-.618 4.415a1.6 1.6 0 00.831.448c.121.485.359.923.754 1.288.192.27.493.405.808.41.009.337.133.643.434.866.365.271.868.326 1.272.089 1.458-.857 1.713-2.653 1.957-4.172.28-1.757.423-3.526.466-5.304.083-3.483-.234-6.959-.552-10.424z" fill="#fff"/><path d="M97.23 12.236c.11.064.218.13.328.195.189.12.372.244.55.374-.29.31-.406.768-.132 1.255 1.055 1.874 1.825 3.901 2.989 5.714.608.953 1.341 1.833 2.207 2.563.481.405.988.78 1.503 1.144.518.364 1.007.72 1.616.919.311.104.647.032.912-.145l.02.02c.345.355.938.42 1.359.173.455-.264.607-.769.516-1.26-.52-2.838-2.384-5.322-4.294-7.406-1.9-2.072-4.177-3.783-6.623-5.17-1.053-.607-2.005 1.015-.952 1.624zM87.538 91.2a11 11 0 01.786.225c.057.206.151.39.292.54a.9.9 0 00.078.087c.288.28.614.349 1 .264.291-.062.528-.301.638-.58a.931.931 0 00.381-.536c.12-.425-.073-.942-.47-1.154-.909-.487-1.939-.66-2.931-.895-.513-.122-1.046-.276-1.578-.237-.537.04-1.04.24-1.507.505-.727.415-1.405 1.078-1.33 1.921-.618.553-.918 1.47-.203 2.098.313.277.76.386 1.217.374.234.206.53.34.875.362.557.031 1.078-.223 1.512-.594a1.16 1.16 0 00.453-.462c.157-.19.296-.391.408-.586.23-.398.468-.882.379-1.332zm3.598 5.745a1.45 1.45 0 00-.504.105 2.048 2.048 0 00-.176.012 1.352 1.352 0 00-.815.168 1.242 1.242 0 00-.576.783l-.045.023c-.6.1-1.152.418-1.489.942-.453.708-.384 1.647.212 2.249.543.551 1.438.696 2.158.457.747-.25 1.338-.809 1.857-1.378.285-.311.64-.65.703-1.082a1.11 1.11 0 00-.016-.4c.012-.055.027-.106.035-.16.167-.904-.354-1.744-1.344-1.719zm10.636-7.721c-.236-.27-.629-.413-.994-.198-1.699.993-3.437 1.92-5.164 2.867-.62.338-.454 1.21.057 1.485a17.64 17.64 0 00-.778.845c-.275.319-.37.76-.147 1.139.2.341.676.568 1.065.431.022-.006.045-.015.066-.022a.987.987 0 00.32.522c-.26.653.342 1.443 1.043 1.435.16-.002.31-.03.454-.075.07.078.154.149.245.207.26.445.87.72 1.323.383.456-.339.81-.659 1.128-1.13.255-.383.455-.802.644-1.22.16-.36.196-.747.052-1.079l.208-.357a1 1 0 00-.041-1.14c.083-.094.167-.189.252-.282.3-.328.392-.792.209-1.183l.08-.073a.844.844 0 00.286-.766c.185-.094.374-.186.557-.28.422-.214.544-.803.315-1.19-.258-.441-.749-.496-1.18-.319zM15.231 19.645c-.437.692-.845 1.422-1.149 2.18-.303.754-.479 1.517-.62 2.314-.081.462.604.853.83.347.064-.138.128-.278.194-.416.03.412.28.761.617.935a.878.878 0 00.044.13c.221.498.717.714 1.25.608.666-.133 1.325-.655 1.85-1.06.455-.357.832-.785 1.187-1.237.801-1.016 1.454-2.125 2.073-3.254a51.95 51.95 0 001.86-3.758c.296-.664.58-1.333.853-2.008.224-.558.428-1.103.418-1.684.797-.703 1.375-1.557 1.672-2.624.078-.29-.281-.475-.491-.283-.43.39-.947.628-1.45.911-.413.229-.83.466-1.236.716a.985.985 0 00-.148.076 3.2 3.2 0 00-.18.127c-1.035.664-2.052 1.346-2.95 2.189a17.008 17.008 0 00-2.761 3.386c-.698.74-1.32 1.55-1.863 2.405zm3.933-1.676c.107-.168.217-.33.33-.494a.338.338 0 00.033-.026.127.127 0 00-.012.019c-.121.172-.242.346-.364.517.004-.003.008-.01.013-.016z" fill="#fff"/><path d="M113.849 68.338c.116-1.064-1.551-1.465-2.015-.544-.043.088-.093.175-.137.264-.522-.184-1.196.003-1.401.565a1.039 1.039 0 00-.647.093.832.832 0 00-.252.125c-.431-.16-.965.037-1.258.43-.148.2-.292.404-.433.607a.941.941 0 00-.138-.047c-.614-.17-1.112.203-1.333.741a1.136 1.136 0 00-.754.016.81.81 0 00-.459-.448c-.371-.148-.85-.047-1.072.305-.159-.402-.513-.703-.993-.703-.566 0-1.096.49-1.076 1.071l.062 1.767c.011.303.128.547.304.725.034.175.071.354.107.53.005.645-.044 1.297-.007 1.93.075 1.278.324 2.55.573 3.803.224 1.124.482 2.272.64 3.427-.106.559-.215 1.115-.315 1.676-.242 1.373-.628 3.235.062 4.544l-.063.34c-.079.453-.178.937-.065 1.392.093.375.319.712.628.933.171.365.53.6 1.032.668 1.512.2 2.62-1.44 3.421-2.472a21.987 21.987 0 002.181-3.405 22.888 22.888 0 002.369-7.77 20.15 20.15 0 00.144-2.223c.007-.563.007-1.114-.222-1.544.393-1.87.82-3.735 1.282-5.589.097-.388.002-.712-.197-.944.012-.086.023-.175.032-.263zm-6.71 16.149l.105-.31c.258-.752.521-1.503.788-2.254.007.003.014.009.022.014-.298.85-.602 1.704-.915 2.55z" fill="#fff"/><path d="M10.517 32.865a.166.166 0 01.05.003c.23.066.478.11.745.133.35.03.663-.212.813-.52a.15.15 0 01.069-.068l.083-.035c1.17-.531 2.101-1.544 2.63-2.702.26-.572.46-1.165.567-1.785.066-.37.167-.787.066-1.155a1.148 1.148 0 00-.059-.159.136.136 0 01.159-.19c1.163.29 2.513-.099 3.488-.798 1.939-1.396 3.168-3.423 4.075-5.6l.01-.017c.28-.462.531-.94.75-1.436.238-.546.555-1.2.482-1.81a.12.12 0 01.004-.051c.048-.168.094-.338.131-.51a.748.748 0 00.018-.197.086.086 0 01.006-.044 60.54 60.54 0 011.003-3.092c.186-.512.368-1.025.588-1.521.235-.527.397-1.087.671-1.59.432-.786-.688-1.413-1.192-.694-.241.347-.542.659-.76 1.022-.227.382-.414.79-.595 1.196-.372.822-.68 1.662-.96 2.52-.53 1.614-.981 3.252-1.563 4.845-.024.07-.051.138-.076.207a10.749 10.749 0 01-.235.409c-.6.987-1.341 1.915-2.277 2.607-.846.625-1.91 1.146-2.986 1.174-.442.01-.85-.1-1.043-.533-.114-.259-.135-.547-.208-.816l-.004-.071c.08-.386.205-.744.06-1.142-.06-.17-.218-.271-.401-.229-.927.216-1.173 1.585-1.244 2.38-.087.99.102 2.068.75 2.851.103.124.21.234.327.335.06.051.06.14.007.198l-.002.002c-.15.165-.336.313-.455.501a.99.99 0 00-.14.367.13.13 0 01-.069.09c-.148.071-.197-.246-.306.423-.184 1.139-.553 2.203-1.524 2.93-.552.412-1.042.479-1.647.307a1.904 1.904 0 01-.237-.144c-.231-.27-.336-.511-.46-.812-.442-1.075-.577-2.307-.752-3.446a46.192 46.192 0 01-.503-7.46c.05-4.46 1.036-9.125 4.671-12.075.918-.744 1.954-1.346 3.002-1.883 1.035-.53 2.276-1.01 3.1-1.847.09-.093.1-.225.052-.33-.032-.066.005-.148.072-.174l.022-.01c.546-.226.355-1.026-.251-.902-.93.191-1.864.338-2.777.618-.914.28-1.814.643-2.693 1.018-1.683.717-3.277 1.619-4.675 2.803a15.928 15.928 0 00-3.143 3.65.136.136 0 01-.133.062c-.244-.036-.498.06-.655.349-.317.59-.59 1.193-.829 1.813-.825 1.836-1.585 3.685-2.033 5.668-.594 2.62-.739 5.376-.103 8.002.562 2.318 1.737 4.555 3.671 6.017 1.38 1.043 3.147 1.55 4.848 1.348z" fill="#E09D86"/><path d="M10.357 18.306c.3.184.847.03.898-.363.068-.49-.135-.903-.208-1.383-.071-.459-.064-.926-.12-1.385a13.231 13.231 0 00-.257-1.514c-.037-.154-.076-.33-.126-.5a8.925 8.925 0 00-.292-1.003c-.035-.101-.089-.306-.178-.319-.07-.083-.261.048-.28.184-.008.034-.012.067-.017.103a.24.24 0 00-.016.097v.027a6.771 6.771 0 00-.04.598c-.031.314.003.648 0 .94 0 .573-.013 1.143-.033 1.715-.027.87-.196 2.272.669 2.803zm8.3-1.038c.086.268.402.278.557.073.43-.565 1.537-3.373.169-3.182-.14.02-.678.497-.624.625a.79.79 0 01.024.08.451.451 0 00-.124.021 2.329 2.329 0 00-1 .582c-.211.218-.509.604-.373.921.035.083.094.144.19.146.268.003.475-.21.697-.337.15-.085.3-.154.458-.21l-.006.024c-.068.386-.089.882.032 1.258zm-1.525 2.408c.203-.5.256-1.084.115-1.61.1-.198.068-.436.018-.673-.053-.26-.144-.586-.391-.724-.04-.021-.103-.013-.125.032a1.042 1.042 0 00-.066.418c-.019-.02-.037-.04-.058-.057-.06-.048-.167-.071-.224 0a.819.819 0 00-.164.55c-.717.539-1.283 1.377-1.092 2.304.028.142.231.155.3.04.264-.443.548-.833.949-1.122a2.63 2.63 0 01-.066.62c-.123.533.606.705.804.222zm-4.354 25.448a.811.811 0 01-.058.058.335.335 0 01-.5-.069 11.345 11.345 0 01-.464-.742 9.682 9.682 0 01-.952-2.47 10.198 10.198 0 01-.269-2.573c.01-.466.086-.92.114-1.383a1.1 1.1 0 00.004-.083c0-.103.053-.198.135-.262.422-.335.697-.871.857-1.365.246-.746.22-1.617-.135-2.322l-.016-.032a1.06 1.06 0 00-.023-.12c-.087-.315-.366-.55-.676-.622a.831.831 0 00-.635.12.34.34 0 01-.254.05 1.401 1.401 0 00-.232-.023c-.764-.012-1.451.58-1.663 1.291-.23.77.043 1.638.415 2.323.133.245.313.473.526.65a.308.308 0 01.085.308.277.277 0 00.002.1c.002.001.01.044.014.048.006.042.008.083.017.125a.4.4 0 00.076.169c.009.015.018.035.014.022.01.023.02.045.03.063a.348.348 0 01.05.235c-.023.193-.037.383-.055.568a11.21 11.21 0 00.157 2.897c.17.96.48 1.886.89 2.77.415.893 1.011 1.68 1.397 2.587.257.597 1.12.459 1.413 0 .206-.319.388-.652.585-.972.004-.01.01-.02.016-.029a.98.98 0 00.12-.194.861.861 0 00.083-.447l.02-.046c.26-.609-.671-1.078-1.088-.63zM41.25 91.475c-.113-.427-.458-.91-.915-1.014.015-.032.032-.066.046-.103.114-.296-.082-.616-.319-.776-.594-.407-1.18-.76-1.89-.93-.668-.16-1.386-.113-2.055.011-.724.137-1.434.284-2.1.608-.323.157-.642.319-.965.466-.345.152-.731.292-.923.634-.102.182-.063.465.132.575a1.162 1.162 0 00-.25-.01c-.055-.113-.372-.25-.476-.3-.38-.179-.767-.163-1.17-.096-.68.114-1.358.27-2.036.404a.904.904 0 00-.287.108c-.279-.364-.734-.567-1.22-.434-.573.156-1.174.339-.966.928.196.556.38 1.21.313 1.783.014-.141-.026.132-.035.176-.034.147-.075.29-.121.43a4.597 4.597 0 00-.082.198 4.901 4.901 0 01-.181.335c-.047.08-.1.157-.153.234.02-.03-.144.172-.17.2-.088.094-.184.18-.28.27l-.054.054c-.012.005-.03.016-.062.035-.222.137-.438.266-.589.314a2.358 2.358 0 01-.432.108c.044-.004-.349-.029-.283-.011-.343-.067-.672-.328-.88-.637-.335-.503-.454-1.065-.572-1.65-.298-1.465-.398-2.824-.966-4.219-.005-.01-.067-.22-.073-.23.088-.549.203-1.105.145-1.624-.128-1.154-.546-2.396-1.372-3.25-.482-.497-1.03-.578-1.692-.57-.64.01-1.204.09-1.784.415-.236.135-.516-.009-.26.402.236.377.826.666 1.258.765.239.053.372.08.607.141.06.015.133.032.2.05a.26.26 0 01.116.105c.372.678.62 1.252.716 2.033.067.536.03 1.33-.208 1.82a.736.736 0 01-.209.275c.011-.013-.142.052-.105.045a7.524 7.524 0 01-.206.057c-.131.035-.133.028-.338.04-.012 0-.023.003-.036.003a.921.921 0 01-.52-.128c-.94-.57-1.776-1.317-2.544-2.165-1.397-1.541-2.658-3.422-3.357-5.444a12.977 12.977 0 01-.59-2.495 5.9 5.9 0 00.017-.46c0-.611.025-1.222.073-1.83.108-1.328.512-2.665.276-3.996-.194-1.095-.91-2.001-1.162-3.074a2.994 2.994 0 01-.053-1.008c.012-.12.158-.179.247-.095a9.07 9.07 0 001.86 1.333c2.33 1.243 5.099 1.546 7.666.98a.358.358 0 01.347.106c.288.322.823.458 1.238.244.425-.222.742-.533.932-.91.341-.192.582-.524.582-.967 0-.508-.339-.92-.792-1.075a1.647 1.647 0 00-.128-.122c.423-.117.838-.282 1.111-.594.11-.127.186-.283.223-.447 5.096-2.988 7.923-8.745 8.987-14.393.37-1.956.54-3.953.658-5.938.032-.508-.33-.894-.772-1.032 1.35-.985 1.89-2.634 2.211-4.22.598-2.96.751-7.923-2.928-8.946-.918-.255-1.821-.207-2.7.004-1.174.012-2.304.316-3.106 1.292a.918.918 0 00-.203.436c-.681.39-1.332.84-1.951 1.33-1.036.814-1.994 1.733-2.907 2.684-.418.437-.806 1.047-.916 1.66a1.314 1.314 0 00-.117.083c-.159.127-.315.258-.47.387a.291.291 0 00-.292-.048c-.567.224-.909.806-1.35 1.164-.178.141-.34.308-.457.501-.208.345-.804.792-1.016 1.335-2 2.3-3.543 4.964-4.724 7.778-.998 2.381-1.72 4.96-1.653 7.559.04 1.643.429 3.217 1.183 4.629a.301.301 0 00-.054.217c.057.383.066.796.104 1.196a8.102 8.102 0 01-.888-.836c-.386-.421-.77-.777-1.037-1.294l-.005-.01c.017-.256.03-.513.028-.77-.002-.467-.631-.625-.871-.235-.698 1.135-1.077 2.44-1.465 3.706-.382 1.247-.656 2.623-.555 3.933.054.687.201 1.351.46 1.97a1.02 1.02 0 00-.4.821c0 .07.006.136.013.203a10.416 10.416 0 001.253 4.309c.014.133.03.267.046.4.108.947.213 1.895.325 2.844.107.908.232 1.813.573 2.67.173.43.379.825.655 1.2.261.346.459.702.688 1.065a29.98 29.98 0 011.366 2.423c.746 1.46 1.56 2.945 2.854 4.005.656.537 1.402.993 2.229 1.216a.742.742 0 00.26.433c.668.54 1.396.993 2.12 1.457.057.234.115.467.2.694.4 1.034.967 1.924 1.651 2.79.972 1.233 2.04 2.395 3.096 3.564.382.529.847 1.009 1.295 1.461a1.14 1.14 0 001.58 0 1.06 1.06 0 00.286-.505.822.822 0 00.283-.089.856.856 0 00.597-.143c.221.066.445.12.67.168.738.163 1.218-.418 1.145-1.02a3.6 3.6 0 001.147.723c.367.143.868-.162.943-.533.007-.032.01-.064.014-.096.778.29 1.713.409 2.451.29a1.952 1.952 0 001.372-.926c.31-.535.219-1.24-.326-1.577a.748.748 0 00-.485-.094c.124.057.25.122.377.205.913.59.317 1.932-.724 1.713-.65-.137-1.349-.493-1.912-.836-.518-.314-.778-.613-1.219-1.134a3.773 3.773 0 01-.427-.531c-.286-.428-.012-.65.007-.66 1.74-1.128 2.693.072 3.663.805.064.05.14.059.214.041.526.422 1.517.188 1.659-.535a3.79 3.79 0 00-.26-2.38 3.15 3.15 0 00-.448-.715c.438.037.877.021 1.31-.04.73.159 1.552.304 2.3.242.862-.071 1.12-.9.79-1.447.666-.152 1.259-.489 1.414-1.195.058-.266.014-.49-.01-.753-.02-.232-.012-.464-.072-.696zM25.31 43.611c.342-1.195.834-2.37 1.654-3.324.36-.417.76-.796 1.228-1.087.397-.246.943-.467 1.313-.513.534-.066.914-.02 1.405.166.304.117.594.326.79.586.832 1.907.388 4.362-.923 5.943-.075.09-.162.166-.257.237-.61.459-1.171.795-1.875.96-.624.149-1.307.1-1.976-.131a3.34 3.34 0 01-.662-.32c-.325-.287-.947-.753-1.03-.913a.43.43 0 01-.038-.228c.005-.083.012-.177.026-.24.103-.461.24-.771.345-1.136zm-9.835 15.084c.215-3.206 1.585-6.304 3.069-9.115.401-.763.871-1.636 1.542-2.197.436-.367.923-.547 1.426-.554.209-.055.404-.004.67.093.177.05.353.12.527.213.477.248.844.63 1.25.969.403.22.818.416 1.248.587.54.215 1.087.415 1.631.617.14.051.28.104.413.163.045.014.153.062.197.076.129.064.091.048.269.14.02.015.034.02.055.044.16.1.297.23.433.375.725.77.656 1.82.464 2.782-.272 1.332-.726 2.605-1.261 3.854-.696 1.623-1.449 3.299-2.436 4.772-.763 1.14-1.711 2.293-2.933 2.976-.72.457-1.468.732-2.277.728-.745-.003-1.446-.3-2.02-.728a2.902 2.902 0 01-.465-.408c-.347-.282-.516-.57-.735-.976-.735-1.37-1.17-2.895-1.067-4.412zM40.313 92.15a.718.718 0 01-.165.195c-.178.129-.265.18-.434.258-.399.181-.91.165-1.338.161-.407-.007-.832-.022-1.21-.19-.305-.137-.56-.335-.618-.626-.05-.172.166-.288.222-.361.092-.118-.009-.175-.14-.239-.298-.147-.59-.179-.917-.22-.384-.051-.767-.12-1.15-.175-.14-.02-.294-.032-.446-.059-.135-.022-.158-.208-.03-.263.005-.004.01-.004.014-.006.59-.254 1.128-.56 1.697-.85.543-.278 1.242-.398 1.845-.292.637.112 1.112.523 1.475 1.04.105.148.27.28.457.327-.04.126-.197.278-.105.406.126.177.402.237.603.412.12.106.077.059.208.227a.25.25 0 01.045.218.208.208 0 01-.013.037z" fill="#E09D86"/><path d="M21.767 73.209c-.155-.575-.794-.772-1.295-.522-.45.223-.579.712-.934 1.034-.276.25-.634.386-1.004.44-.875.126-1.62-.694-2.469-.803-.135-.018-.293.248-.295.45-.012 1.404 1.68 2.158 2.98 2.124a3.44 3.44 0 002.006-.741c.598-.464 1.226-1.172 1.01-1.982zm-2.733 4.909a1.462 1.462 0 01-1.03.161c-.454-.09-.882-.258-1.336-.345-.253-.051-.436.105-.462.35-.093.85.649 1.453 1.376 1.725.826.312 1.685.206 2.471-.155.497-.224.62-.94.363-1.376a1.029 1.029 0 00-1.382-.36zm25.549-22.482a1.853 1.853 0 00-.514-1.24c-.652-.674-1.658-.813-2.539-.598-.877.214-1.745.703-2.477 1.218-.385.271-.75.567-1.098.88-.312.289-.61.303-1.021.397-1.012.23-2.007.597-2.904 1.123-.834.488-1.663 1.094-1.675 2.148a.494.494 0 00.214.428c.167.315.472.537.903.496 2.028-.19 3.917-.829 5.714-1.697.097.062.204.114.318.151.795.267 1.75-.005 2.496-.315.854-.35 1.61-.85 2.362-1.38.46-.32.674-.905.374-1.418a1.065 1.065 0 00-.153-.193zm-6.295 3.019a.361.361 0 01-.052.082.247.247 0 01-.16.065.166.166 0 01-.088-.021.17.17 0 01-.07-.044.146.146 0 01-.047-.073.16.16 0 01-.02-.087l.004-.07a.235.235 0 01.034-.117c.002-.008.002-.016.005-.024.084-.277.19-.522.05-.805-.114-.23.178-.489.37-.285.36.384.411 1.036-.026 1.379zm4.99-2.2c-.052.334-.561.23-.572-.079-.01-.335-.28-.535-.35-.846l-.004-.027c-.162-.142-.115-.434.146-.44.744-.022.87.824.78 1.391zm9.509-13.114c.022.021.04.042.059.066.018.02.1.124.027.03-.088-.115.044.056.053.07a.738.738 0 00.295.226.65.65 0 00.219.061l.05.01a.326.326 0 00.04.008c.065.149.143.29.223.416.139.517.954.781 1.354.2.03-.046.062-.092.094-.138a.744.744 0 00.057-.1.705.705 0 00.368-.286.64.64 0 00.104-.297c.224-.227.474-.43.74-.623a.886.886 0 00.183-.181.95.95 0 00.131-.02c.07-.003.14-.012.207-.028.04-.01.126-.027-.027-.007.196-.025.363-.089.468-.267a.535.535 0 000-.548c-.1-.152-.21-.283-.383-.355a1.165 1.165 0 00-.451-.1 1.03 1.03 0 00-.493.14.816.816 0 00-.308.282l-.65.24a1.006 1.006 0 00-.45-.035 3 3 0 00-.858.266 7.7 7.7 0 00-.187-.144c-.235-.237-.651-.251-.916-.047a.691.691 0 00-.07 1.036c.041.04.082.083.121.125zm-6.003 6.367c1.302-.11 2.49-.495 3.613-1.083a.79.79 0 00.286.143c.197.053.425.02.614-.08.46.13 1.044-.062 1.119-.59l.01-.082c.057-.4-.05-.792-.418-.987a.979.979 0 00-.283-.623 5.022 5.022 0 01-.992-1.54.794.794 0 00-.224-.304c.005-.173-.04-.356-.077-.549-.075-.375-.694-.472-.86-.11a1.98 1.98 0 00-.14.404c-.825.436-1.465 1.291-2.052 1.992-.614.732-1.463 1.562-1.424 2.586.018.416.367.86.828.823zm74.615-31.165a.78.78 0 00-.374-.429c-.03-.145-.06-.292-.094-.435a20.927 20.927 0 00-.249-.98v-.001l-.002-.009-.038-.13c-.336-1.207-.718-2.448-1.282-3.569-.06-.117-.121-.236-.183-.35l-.281-.631a15.92 15.92 0 00-.829-1.814c-.175-.322-.292-.724-.561-.653-.868-1.39-2.106-2.336-3.369-3.407-1.398-1.186-2.992-2.087-4.675-2.805-.88-.375-1.78-.738-2.696-1.018-.909-.278-1.843-.425-2.774-.616-.608-.126-.797.675-.251.901l.18.075c-.128.102-.164.308-.034.439.824.84 2.064 1.319 3.099 1.849 1.05.536 2.085 1.138 3.001 1.882 3.638 2.95 4.623 7.614 4.673 12.075a46.12 46.12 0 01-.505 7.46c-.172 1.137-.308 2.371-.749 3.444a3.13 3.13 0 01-.37.63.909.909 0 01-.571.353c-.457.078-.857.028-1.405-.335-1.011-.67-1.311-1.792-1.525-2.928a.546.546 0 00-.361-.447 1.124 1.124 0 00-.151-.434c-.119-.185-.306-.334-.456-.499a.322.322 0 00-.135-.088 2.73 2.73 0 00.468-.447c.648-.78.836-1.863.749-2.85-.073-.798-.317-2.165-1.244-2.38-.182-.045-.341.056-.403.228-.148.407-.011.775.067 1.174v.007c-.08.278-.019.644-.138.91-.194.434-.68.482-1.123.47-1.074-.029-2.138-.548-2.985-1.175-.937-.692-1.677-1.618-2.277-2.604-.067-.11-.131-.223-.195-.335a1.02 1.02 0 01-.062-.133c-.017-.05-.036-.1-.054-.147-.583-1.597-1.033-3.236-1.562-4.848a25.156 25.156 0 00-.96-2.52 11.651 11.651 0 00-.596-1.196c-.217-.363-.52-.674-.762-1.021-.501-.72-1.624-.092-1.192.692.276.503.438 1.064.67 1.592.222.498.403 1.011.588 1.523a59.944 59.944 0 011.014 3.11.735.735 0 00.016.223c.04.177.086.356.139.533-.087.616.237 1.28.478 1.836.22.5.472.98.755 1.443.909 2.182 2.138 4.211 4.08 5.608 1.075.774 2.603 1.164 3.839.69-.108.14-.206.29-.251.46-.101.368 0 .784.065 1.154a7.38 7.38 0 00.569 1.787c.526 1.156 1.458 2.167 2.629 2.698.043.022.085.04.131.057.139.331.467.598.835.568.276-.023.53-.07.768-.14 1.71.211 3.487-.295 4.873-1.343 1.933-1.463 3.111-3.7 3.671-6.017.352-1.453.466-2.944.397-4.43.13-.887.284-1.853-.03-2.707z" fill="#E09D86"/><path d="M113.255 12.304l-.016-.103c-.022-.136-.23-.363-.297-.28-.091.015-.128.316-.164.416a9.813 9.813 0 00-.292 1.001c-.048.175-.087.347-.124.501-.12.496-.196 1.01-.258 1.516-.057.458-.048.926-.119 1.384-.074.479-.276.891-.209 1.382.052.393.597.549.897.363.866-.531.694-1.932.669-2.803a61.13 61.13 0 01-.034-1.714c0-.293.034-.627.002-.94a7.413 7.413 0 00-.039-.597v-.027a.283.283 0 00-.016-.1zm-10.392 2.331c.009.062.012.074.009.033.002.036.007.073.012.108.02.167.096.318.212.413-.041.737.299 1.746.55 2.075.155.208.471.197.558-.072.121-.376.1-.871.031-1.257a.079.079 0 00-.004-.023c.155.054.308.124.455.208.224.128.429.34.698.335.098 0 .156-.06.19-.143.135-.315-.162-.701-.375-.92a2.283 2.283 0 00-.997-.582.461.461 0 00-.124-.023c.007-.028.012-.053.023-.08.055-.125-.057-.325-.195-.345a1.023 1.023 0 00-.12-.009 1.688 1.688 0 00-.247-.329c-.117-.117-.343-.28-.516-.257-.123.016-.206.07-.251.19-.048.132.007.332.036.462.014.07.035.143.055.216zm2.95 5.135c.197.483.926.311.804-.222a2.576 2.576 0 01-.064-.62c.4.289.685.678.948 1.121.068.115.272.103.3-.039.191-.926-.375-1.763-1.092-2.304a.824.824 0 00-.164-.549c-.056-.072-.165-.05-.224 0-.021.016-.039.038-.058.055a1.076 1.076 0 00-.066-.418c-.022-.044-.086-.053-.125-.032-.249.139-.338.465-.391.725-.05.237-.083.476.018.673a2.58 2.58 0 00.114 1.61zm5.463 24.78c-.133.239-.285.47-.436.7a.377.377 0 01-.585.056l-.003-.004c-.417-.448-1.345.021-1.087.63a.278.278 0 00.021.046.85.85 0 00.08.447.93.93 0 00.121.193c.005.01.013.021.018.032.197.32.379.652.582.968.295.46 1.159.599 1.414 0 .388-.905.983-1.694 1.396-2.587.413-.883.722-1.808.891-2.768.16-.894.228-1.804.167-2.709 0-.021 0-.04.002-.058.025-.246.05-.49.079-.737.028-.237.108-.577.151-.919a.341.341 0 01.105-.21c.163-.162.306-.35.414-.551.37-.684.642-1.553.413-2.324-.212-.713-.897-1.305-1.661-1.29a1.46 1.46 0 00-.232.023.345.345 0 01-.256-.052.82.82 0 00-.633-.118.91.91 0 00-.676.621.92.92 0 00-.025.12l-.016.032c-.354.705-.379 1.576-.135 2.322.158.49.432 1.02.848 1.356a.38.38 0 01.146.284c0 .024.002.046.004.07.028.463.103.918.112 1.382.016.869-.068 1.73-.267 2.572a9.682 9.682 0 01-.952 2.473zM91.92 99.505c-.322.45-.725.837-1.236 1.147-.566.344-1.263.698-1.912.834-1.041.22-1.639-1.125-.726-1.712a2.89 2.89 0 01.377-.206.754.754 0 00-.486.096c-.542.336-.635 1.043-.323 1.576a1.94 1.94 0 001.37.926c.738.117 1.673.002 2.452-.288.002.03.008.062.013.095.075.372.578.676.943.531a3.552 3.552 0 001-.591.089.089 0 01.144.064c.039.524.492.97 1.15.825.212-.044.422-.096.63-.158a.088.088 0 01.07.011.892.892 0 00.542.128.08.08 0 01.044.007.906.906 0 00.209.069.083.083 0 01.069.061c.048.163.137.316.272.452a1.14 1.14 0 001.578 0c.448-.45.91-.93 1.293-1.459a.043.043 0 01.006-.007c1.055-1.167 2.122-2.327 3.093-3.558.779-.99 1.409-2.006 1.806-3.233.021-.07.026-.142.037-.21a.082.082 0 01.039-.061c.712-.459 1.43-.907 2.09-1.438a.756.756 0 00.248-.384.091.091 0 01.062-.062c.806-.227 1.533-.677 2.179-1.204 1.291-1.06 2.104-2.543 2.85-4.002.423-.83.875-1.64 1.371-2.43.228-.361.427-.714.685-1.06.278-.372.484-.77.655-1.201.343-.857.468-1.76.574-2.67.112-.948.217-1.895.326-2.843.014-.129.03-.256.042-.386a.135.135 0 01.011-.032 10.44 10.44 0 001.247-4.292c.005-.067.011-.134.013-.204a1.012 1.012 0 00-.354-.778.09.09 0 01-.025-.1 6.407 6.407 0 00.437-1.91c.1-1.31-.172-2.687-.555-3.935-.389-1.264-.82-2.876-1.517-4.007-.24-.393-.816.07-.816.536-.002.258-.2.459-.182.717a6.545 6.545 0 01-.109.117c-.263.516-.336.817-.72 1.234a8.577 8.577 0 01-1.085 1c-.504.385-1.023.736-1.565 1.055-.091.055-.184-.071-.107-.142.238-.214.441-.245.649-.484 1.578-1.807 2.387-4.244 2.448-6.628.066-2.6-.655-5.18-1.655-7.56-.668-1.593-1.328-3.208-2.268-4.655-.001-.003.013.004.011 0-.235-.511-.649-.938-.918-1.432-.539-.986-1.199-1.958-1.983-2.77a13.759 13.759 0 00-1.217-1.094c-.295-.243-.571-.535-.866-.79a.082.082 0 01-.03-.074c.04-.384-.187-.802-.689-.802a.683.683 0 00-.416.127c-.046.034-.116.014-.134-.04-.167-.498-.489-.97-.832-1.329-.913-.952-1.872-1.87-2.907-2.686-.608-.481-1.184-.94-1.852-1.326a.11.11 0 01-.04-.057c-.04-.134-.155-.255-.26-.38-.8-.976-1.906-1.322-3.076-1.334a5.412 5.412 0 00-2.729.035c-3.682 1.026-3.529 5.988-2.93 8.946.312 1.538.828 3.135 2.087 4.126a.087.087 0 01-.02.15c-.373.17-.656.525-.63.977.12 1.985.29 3.982.659 5.937 1.062 5.638 3.878 11.38 8.956 14.375.022.013.035.03.041.053.04.153.111.296.212.413.244.28.6.439.971.554a.083.083 0 01.038.138l-.011.011a.075.075 0 01-.032.02 1.135 1.135 0 00-.772 1.067c0 .434.228.763.559.955a.08.08 0 01.033.035c.191.368.504.671.922.89.455.234 1.058.045 1.32-.353a.085.085 0 01.091-.04c2.616.622 5.459.332 7.837-.94a8.985 8.985 0 001.945-1.41c.053-.049.14-.019.149.052.059.392.043.785-.037 1.13-.255 1.071-.968 1.978-1.162 3.072-.239 1.332.167 2.669.276 3.997.048.609.073 1.218.073 1.83a4.988 4.988 0 00.015.47 12.963 12.963 0 01-.59 2.484c-.697 2.025-1.96 3.904-3.357 5.444-.765.846-1.597 1.592-2.531 2.157a.945.945 0 01-.544.136h-.007c-.011-.002-.022-.002-.034-.005l-.253-.025a.518.518 0 01-.087-.018 2.167 2.167 0 01-.187-.053l-.046-.023a.41.41 0 01-.164-.124 1.064 1.064 0 01-.105-.171c-.236-.49-.274-1.284-.208-1.82.098-.782.394-1.432.767-2.11l.007-.012c.066-.018.135-.041.151-.044.237-.053.475-.109.714-.164.432-.097.834-.272 1.168-.566.217-.192.301-.55.063-.685-.579-.323-1.375-.32-2.018-.328-.661-.01-1.209.073-1.69.568-.827.856-1.243 2.095-1.373 3.251a6.225 6.225 0 00.032 1.633l-.016.029c-.569 1.396-.612 2.944-.909 4.41-.119.587-.238 1.146-.573 1.65-.2.299-.514.553-.848.631l-.034.002a2.326 2.326 0 00-.274.013h-.025c-.123-.013-.282-.064-.414-.105-.151-.05-.365-.179-.59-.315a.278.278 0 00-.061-.034l-.054-.055c-.096-.088-.192-.175-.279-.27-.023-.023-.139-.169-.165-.197l-.015-.014c-.05-.073-.1-.145-.144-.222a5.735 5.735 0 01-.176-.324l-.007-.021c-.012-.037-.075-.179-.078-.188a4.5 4.5 0 01-.121-.43c-.01-.046-.052-.319-.036-.177-.067-.574-.04-.739.155-1.293.21-.59-.237-1.26-.808-1.416a1.128 1.128 0 00-1.175.377.09.09 0 01-.105.025.785.785 0 00-.226-.076c-.68-.137-1.356-.291-2.039-.406-.402-.067-.79-.083-1.169.097-.094.043-.364.163-.453.268a.079.079 0 01-.068.03h-.003a.083.083 0 01-.068-.126.48.48 0 00-.002-.44c-.19-.34-.578-.479-.921-.633-.324-.147-.644-.308-.966-.466-.665-.322-1.377-.469-2.1-.605-.67-.126-1.387-.172-2.054-.01-.71.167-1.296.521-1.892.927-.235.161-.433.482-.317.777.014.036.028.07.044.101-.457.107-.8.588-.914 1.015-.062.232-.052.464-.073.696-.025.264-.07.487-.01.754.147.668.686 1.006 1.309 1.169.053.014.076.07.055.12-.25.544.025 1.284.841 1.352.742.061 1.558-.082 2.288-.242a.063.063 0 01.026 0c.364.055.733.072 1.102.055a.086.086 0 01.074.139c-.126.17-.236.357-.329.561a3.815 3.815 0 00-.261 2.383c.14.703 1.094.944 1.626.558a.102.102 0 01.065-.02.239.239 0 00.184-.047c.967-.733 2.453-1.65 3.57-.88.021.014.128.104.148.119.161.306.028.352-.052.556l-.406.579zm.452-53.786c-1.41-1.57-1.917-4.119-1.066-6.09l.013-.021c.197-.257.482-.462.785-.576.49-.188.871-.232 1.405-.166.37.044.914.266 1.313.512.468.292.868.67 1.225 1.087.822.954 1.315 2.128 1.655 3.324.101.35.169.807.284 1.236a.35.35 0 01-.064.311 7.223 7.223 0 01-.925.974 3.258 3.258 0 01-.654.317c-.667.232-1.35.28-1.977.131-.7-.166-1.264-.5-1.873-.96a.604.604 0 00-.096-.06.136.136 0 01-.025-.019zm6.342 2.72l.637-.413c.297-.264.594-.526.951-.714.173-.088.345-.157.522-.21l.014-.006c.381-.07.429-.046.655-.09.005-.002.01.002.015.002.5.007.986.188 1.42.552.669.562 1.14 1.437 1.542 2.196 1.482 2.812 2.854 5.911 3.069 9.118.103 1.514-.141 3.164-1.067 4.411-.267.356-.367.466-.687.832-.004.004-.112.094-.264.26a1.964 1.964 0 01-.439.367c-.601.386-.977.582-1.83.652-.868.069-1.559-.271-2.279-.726-1.22-.685-2.168-1.838-2.933-2.979-.988-1.473-1.738-3.148-2.434-4.772-.535-1.248-.99-2.521-1.261-3.855-.185-.919-.254-1.688.137-2.415a.688.688 0 01.133-.172c.08-.081.194-.195.194-.197a1.03 1.03 0 01.43-.269c.221-.07.437-.175.64-.26l2.835-1.312zM88.45 91.13c-.384.055-.766.126-1.152.176-.328.044-.618.073-.918.221-.13.062-.196.276-.105.397.022.024.043.051.064.076a.291.291 0 01.02.352c-.162.217-.233.275-.513.4-.377.167-.804.183-1.21.19-.428.006-.938.021-1.339-.161a1.993 1.993 0 01-.523-.358c-.016-.017-.053-.083-.075-.095-.007-.014-.008-.025-.014-.036a.144.144 0 00.004-.03.617.617 0 01.183-.414c.148-.152.374-.252.5-.427a.427.427 0 00.081-.319.09.09 0 01.054-.095.837.837 0 00.386-.307c.365-.517.84-.926 1.475-1.039a3.073 3.073 0 011.844.292c.57.292 1.11.596 1.7.85.05.023.104.046.16.07.076.036.076.134-.209.194-.203.042-.224.039-.413.064z" fill="#E09D86"/><path d="M106.998 73.42c-.328.041-.651.455-.965.581a.51.51 0 00-.175-.143c-.57-.278-1.262-.165-1.879-.14-.121.005-.402-.02-.647.009-.246-.305-.397-.677-.774-.86-.499-.249-1.139-.056-1.294.52-.215.809.413 1.519 1.013 1.984a3.442 3.442 0 002.006.74c1.297.033 2.814-.73 2.978-2.126.016-.133-.128-.582-.263-.565zm-.619 4.486c-.455.088-.898.462-1.352.552a1.474 1.474 0 01-1.03-.161 1.023 1.023 0 00-1.382.361c-.256.436-.133 1.15.363 1.376.786.358 1.645.466 2.473.156.725-.272 1.467-.876 1.375-1.728-.027-.245-.194-.606-.447-.556zM83.376 58.915a.549.549 0 01.243.173 1.59 1.59 0 00.228-.119c1.793.868 3.686 1.507 5.712 1.697.43.04.738-.18.902-.496a.484.484 0 00.215-.428c-.01-1.054-.842-1.66-1.677-2.148a10.165 10.165 0 00-2.902-1.123c-.409-.094-.676-.165-.987-.45-.349-.315-.747-.556-1.131-.827-.732-.513-1.603-1.004-2.478-1.216-.88-.217-1.886-.077-2.537.598a1.833 1.833 0 00-.516 1.24.942.942 0 00-.153.193c-.3.511-.084 1.096.374 1.418.742.52 1.487 1.011 2.326 1.364a.328.328 0 01.312-.13c.31.04.61.096.912.144a2.24 2.24 0 011.157.11zm1.793-.199c0 .03.007.1-.008.126a.176.176 0 01-.046.073.17.17 0 01-.073.046.181.181 0 01-.085.02.236.236 0 01-.16-.066c-.022-.025-.08-.062-.105-.098-.463-.451-.333-.979.025-1.363.19-.204.484.054.372.285-.143.283-.063.464.02.742l.033.088c.002.002-.01-.037-.009-.035l.036.182zm-4.492-3.035c0 .009-.053.066-.06.075-.244.302-.205.345-.292.798-.059.305-.52.414-.573.078-.09-.567.037-1.413.78-1.392.264.007.415.213.145.441zM66.255 42.684a.717.717 0 00.306.478c.125.09.248.186.365.284.123.134.252.263.39.382.066.058.133.11.2.157.07.08.138.162.205.241a.217.217 0 01-.037.002l.071.097c.018.048.04.096.075.144l.094.138a.749.749 0 00.372.29l.512.602c.57.668 1.16 1.382 1.879 1.908-.027.45.033.903.199 1.33.153.398.532.672.975.55.359-.096.628-.472.583-.843.025.103.052.202.076.3 1.157.62 2.38 1.03 3.727 1.142.461.039.81-.406.827-.822.04-1.025-.81-1.854-1.423-2.585-.446-.533-.921-1.155-1.487-1.613-.391-.424-.9-.774-1.272-.994a7.763 7.763 0 00-.448-.242c-.74-.688-1.574-1.26-2.58-1.548a.827.827 0 00-.873.271 4.486 4.486 0 00-.377-.074c-.15-.025-.317-.071-.482-.093-.162-.152-.32-.306-.484-.456a3.228 3.228 0 01-1.745-.339c-.205.3-.242.718.073 1.008.096.092.189.186.28.285zm8.174 3.388c.01 0 .146.017.303.115.267.218.158.127.27.226.555.484 1.135 1.1.92 1.902-.098.367-.541.443-.808.21-.436-.38-.61-.856-.838-1.377-.012-.016-.04-.087-.06-.13-.04-.073-.055-.144-.09-.228a.513.513 0 01-.019-.037c-.142-.278-.142-.726.322-.681zm-2.078 1.83c.008.12.027.243.052.364a2.555 2.555 0 01-.068-.356c.006-.002.011-.006.017-.007z" fill="#E09D86"/><path d="M54.375 46.268h-.002a.42.42 0 01-.187-.035 3.888 3.888 0 01-.553-.352c-.525-.404-.925-.944-1.248-1.516-.365-.647-.648-1.326-.915-2.019-.263-.687-.514-1.521-1.128-1.974-.082-.06-.197.007-.224.092-.242.775.044 1.756.238 2.521.216.845.49 1.669.922 2.43a6.043 6.043 0 001.587 1.845c.138.106.302.225.482.34a.147.147 0 01.067.142c-.048.38.068.758.331 1.009a.148.148 0 01-.053.251l-.217.075c-.934.327-1.866.664-2.829.901-.23.057-.453.029-.68.076-.246.05-.485.154-.72.236l-.352.12a.145.145 0 01-.131-.017.756.756 0 00-.212-.107 2.718 2.718 0 00-.865-.148c-.005 0-.012 0-.017-.002l-.114-.013a.635.635 0 00-.395.092c-.046.015-.094.03-.144.05a.145.145 0 01-.095.005 2.01 2.01 0 00-.291-.06.152.152 0 01-.063-.025 1.584 1.584 0 01-.24-.195 1.076 1.076 0 00-.064-.054c.007-.252-.181-.507-.402-.599-.315-.13-.612 0-.802.262-1.468 2.001-1.142 4.764.407 6.609 1.276 1.517 3.233 2.185 5.164 2.385.06.007.104.05.12.108.028.096.08.188.167.268.768.703 2.102.733 3.09.61 1.044-.13 2.069-.334 3.063-.683 1.565-.553 3.056-1.387 4.262-2.532a.148.148 0 01.208.003c1.238 1.235 2.8 2.127 4.444 2.706.996.352 2.019.554 3.063.684.989.124 2.321.093 3.09-.613a.538.538 0 00.167-.266.14.14 0 01.121-.106c1.932-.202 3.887-.868 5.162-2.385 1.55-1.846 1.875-4.61.41-6.61-.19-.261-.49-.392-.803-.261a.704.704 0 00-.363.38.157.157 0 01-.174.093 2.308 2.308 0 00-1.051.05c-.01.001-.02.005-.03.005l-.468.039c-.18.01-.363.03-.548.06a.62.62 0 00-.41.239c-.024.034-.023-.081-.064-.078-.04.003-.136.06-.18.06-.193-.003-.474-.026-.65-.099a.338.338 0 00-.144-.028l-.022-.006c-.23-.046-.451-.017-.681-.075-.964-.234-1.895-.573-2.83-.9a10.41 10.41 0 00-.537-.177.151.151 0 01-.095-.204l.02-.044a.157.157 0 01.073-.075c.485-.23.91-.77.807-1.292-.078-.397-.516-.747-.818-1.017-.001.004-.003.006-.005.006a1.314 1.314 0 00-.109-.092.145.145 0 01-.055-.105.816.816 0 00-.398-.621c-.258-.137-.493-.119-.753-.002-.19.083-.304.306-.329.501-.005.037-.007.074-.005.108a.156.156 0 01-.102.143 1.573 1.573 0 00-.128.059c-.537.267-.967.853-1.366 1.124-.939.645-1.85.636-2.958.98-.16.047-.322.072-.48.121-.047.017-.27-.13-.216.09.007.03.056.121.034.096-.35-.37-1.19-.261-1.28.296a.238.238 0 00-.006.048l-.633-.198c-1.108-.343-1.788-.645-2.727-1.29-.399-.27-1.066-.821-1.603-1.09a1.872 1.872 0 00-.432-.147l-.03-.057a.578.578 0 00-.194-.193.151.151 0 01-.064-.09 1.46 1.46 0 00-.095-.28c-.039-.09-.183-.147-.276-.113l-.03.012a.13.13 0 00-.051.035l-.004-.001a.056.056 0 00-.023.018c-.06.051-.076.008-.067.205.01.074-.08.221-.16.228l-.11.03zm1.387 10.41c-1.353.318-2.728.48-4.084.18-.896-.199-1.524-.583-2.024-1.117-.337-.36-.547-.812-.406-1.306.022-.072.05-.14.082-.2.107-.193.384-.356.607-.372.147-.01.299-.003.453-.009.203-.005.497.038.7.036.01 0 .02 0 .03.002.142.023.284.05.425.078 1.307.24 2.588.598 3.926.598.9.002 1.421-.025 2.298-.25l.007-.001.505-.098c.004-.002.64-.083.644-.083.38-.007.634.331.424.677-.155.253-.443.444-.685.603l-.534.321s-1.176.664-2.368.942zm20.785-2.586a2.43 2.43 0 01-.187.758l-.006.014a4.557 4.557 0 01-.396.958c-.361.664-.88 1.202-1.628 1.4-.56.146-.87-.511-.531-.911.33-.395.707-.748 1.044-1.14.352-.407.508-.868.76-1.334a.423.423 0 01.079-.103c.098-.34.596-.319.712-.005.1.086.163.209.153.363z" fill="#E09D86"/><path d="M34.563 19.871a.154.154 0 00-.14-.039.315.315 0 00-.05.013c-.132-.234-.397-.383-.662-.222a.52.52 0 00-.183-.143.675.675 0 00-.495-.315c-1.126-.098-2.295.53-2.784 1.556-.503 1.061-.276 2.304.507 3.166.02.02.043.041.064.059.146.386.311.765.49 1.135a.564.564 0 00-.123.149 12.375 12.375 0 00-1.422 3.803c-.123.641-.26 1.337-.112 1.985.102.452.375.818.756.944.217.427.69.758 1.119.452.33-.237.523-.685.728-1.024l.023-.039c.386-.44.745-.92 1.047-1.43.109-.154.214-.31.312-.468.569-.917.71-1.97.585-3.026-.066-.537-.24-1.208-.376-1.905-.12-.705-.211-1.438-.112-2.122.074-.39.134-.703.397-.997.162-.134.287-.324.447-.462.142-.124.293-.278.247-.429a.414.414 0 00-.263-.64zm55.501 12.446c-1.078-.29-1.738-1.22-2.228-2.163-.272-.525-.562-1.064-.773-1.618-.18-.462-.38-1.071 0-1.482.295-.315.18-.855-.258-.972-.705-.192-1.345-.303-1.973-.703a4.365 4.365 0 01-1.458-1.537c-.518-.917-1.136-3.083.097-3.727.306-.158.09-.66-.235-.551-.788.255-1.195.88-1.353 1.614-.303-.325-1.037-.189-1.08.404a10.78 10.78 0 00.036 1.943c-.01.083-.017.167-.026.25a.646.646 0 00-.638.127c-1.064.972-1.035 2.755-.032 3.763 1.05 1.055 2.768.995 3.944.195.09.021.067.178.158.2.062.404.413.627.638.998.317.518.641 1.03.974 1.534.02.034.043.066.062.096.172.404.356.798.584 1.167.266.432.64.867 1.077 1.207l.418.565c.269.356.746.296.98.052.404.04.82-.038 1.226-.289.427-.26.36-.94-.14-1.073zm-4.204-5.072l-.075-.127.091.02c-.003.037-.01.07-.016.107z" fill="#318056"/><path d="M42.743 24.089a.644.644 0 00-.635-.13c-.009-.081-.016-.164-.027-.247.07-.645.082-1.297.034-1.945-.04-.593-.776-.73-1.078-.402-.158-.734-.564-1.36-1.355-1.617-.324-.106-.492.282-.2.466 1.41.888.582 2.897.065 3.815a4.343 4.343 0 01-1.457 1.535c-.632.402-1.27.513-1.975.703-.438.118-.553.659-.258.974.38.409.178 1.018.002 1.482-.212.554-.502 1.093-.776 1.617-.489.942-1.147 1.873-2.227 2.162-.501.134-.567.814-.142 1.075.41.25.823.329 1.23.288.232.245.707.305.98-.053.14-.186.279-.375.417-.563a4.7 4.7 0 001.077-1.208c.227-.368.412-.763.581-1.167l.066-.095a56.75 56.75 0 00.971-1.536c.226-.371.584-.655.644-1.058.093-.022.062-.117.155-.139 1.174.8 2.894.86 3.944-.196 1.001-1.006 1.031-2.79-.036-3.761zm50.411 4.757a12.362 12.362 0 00-1.42-3.802.546.546 0 00-.124-.149c.178-.37.345-.75.49-1.137a.39.39 0 00.063-.058c.785-.86 1.012-2.106.507-3.164-.49-1.026-1.656-1.656-2.782-1.557a.67.67 0 00-.496.315.498.498 0 00-.183.145c-.266-.164-.53-.014-.66.22a.36.36 0 00-.052-.012.149.149 0 00-.139.037.416.416 0 00-.265.641.412.412 0 00.125.443c.142.122.218.23.363.35.035.03.07.064.1.098.234.285.433.632.505.997.1.685.007 1.416-.113 2.12-.135.699-.311 1.372-.375 1.908-.125 1.057-.155 2.084.584 3.025.115.147.202.313.313.467.302.51.661.992 1.047 1.434l.024.036c.204.338.394.786.727 1.023.429.308.9-.023 1.117-.451.383-.124.657-.492.756-.944.148-.648.01-1.344-.112-1.985z" fill="#B1282D"/><path d="M31.107 46.265a3.05 3.05 0 00-.809.01c-.267.03-.473.027-.742.052a8.66 8.66 0 01-1.574.025c-.847-.078-1.747-.206-2.503-.62-.83-.457-1.322-1.254-1.882-1.983-.532-.698-1.1-1.2-1.994-1.334-.159-.023-.237.156-.107.253.388.29.64.698.922 1.095.282.398.515.823.765 1.243.512.862 1.145 1.592 2.061 2.044a4.948 4.948 0 002.816.486 11.654 11.654 0 001.617-.315c.246-.065.477-.145.71-.237.334-.131.553-.229.81-.398.147-.1.081-.303-.09-.321z" fill="#B2282D"/><path d="M94.822 9.207c.382 1.06.665 2.131 1.01 3.205.304.944.582 1.898.806 2.863.226.97.379 1.955.637 2.917.464 1.744 1.329 3.398 2.38 4.86.939 1.31 2.058 2.487 3.39 3.4a10.251 10.251 0 002.407 1.217c.015.616.189 1.229.511 1.758.24.399.555.712.909.99.178.207.364.402.539.614.051.063.099.13.144.2.18.587.434 1.145.681 1.71.301.692.536 1.363.708 2.098.157.67.427 1.3.824 1.834a22.92 22.92 0 00-.1 1.072 33.478 33.478 0 01-.29 2.51 61.675 61.675 0 01-.751 3.785 42.311 42.311 0 00-1.069-1.309 92.863 92.863 0 00-.896-1.068 109.943 109.943 0 00-3.046-3.408c-1.001-1.082-2.036-2.141-3.178-3.08-.863-.708-1.77-1.39-2.783-1.86 1.036-.343 1.735-1.37 1.674-2.572-.028-.6-.229-1.233-.633-1.693a2.687 2.687 0 00-.99-.714 2.906 2.906 0 00-2.201 0l.064-.373c.153-.944.247-1.895.277-2.851.112-3.423-.512-6.788-1.547-10.039a34.07 34.07 0 00-.826-2.307c-.307-.772-.688-1.487-1.06-2.228-.758-1.494-1.496-2.955-2.501-4.306-.11-.15-.338-.025-.253.147.408.827.854 1.632 1.251 2.465.398.837.772 1.512 1.181 2.49.616 1.481 1.14 3 1.582 4.543a26.27 26.27 0 01.878 4.788 26.666 26.666 0 01-.318 7.424c-.034.17-.064.34-.096.508a6.419 6.419 0 00-.206-.848c-.205-.638-.513-1.222-.861-1.794-.17-.276-.322-.563-.497-.836a2.191 2.191 0 01-.161-.331c.125-.175.247-.356.377-.544.296-.425.572-.857.73-1.356.305-.974.079-2.012-.457-2.863a3.534 3.534 0 00-2.373-1.62c-.91-.159-2.147-.022-2.84.656l-.093.005c-.438-.345-1.126-.515-1.562-.59a4.734 4.734 0 00-2.705.344 5.285 5.285 0 00-1.984 1.527c-.185.196-.36.398-.532.604-.277.338-.494.674-.608 1.046a.571.571 0 00-.217.075c-1.117.637-1.571 2.016-1.624 3.231-.053 1.206.423 2.398 1.398 3.134 1.067.81 2.296.693 3.481.222.203-.082.407-.169.608-.255.276.494.554.99.776 1.514.25.588.475 1.206.776 1.773-.338-.098-.685-.165-.998-.241a17.795 17.795 0 01-2.725-.903c-1.55-.665-3.075-1.541-4.35-2.644-1.316-1.14-2.343-2.571-3.285-4.022-.936-1.434-1.663-2.976-2.391-4.524a26.737 26.737 0 01-1.034-2.468c-.265-.758-.451-1.564-.83-2.274-.063-.115-.258-.066-.251.065.055.95.41 1.904.672 2.812.274.95.601 1.869.964 2.79 1.256 3.18 3.085 6.429 5.691 8.708 1.322 1.156 2.84 2.074 4.454 2.766.795.34 1.61.632 2.446.862.287.08.578.146.866.218a2.057 2.057 0 00-1.344 1.116c-.568.816-.744 1.976-.294 2.849.551 1.068 1.957 1.486 3.065 1.124a2.32 2.32 0 00.731-.425c-.172 1.219-.04 2.465.201 3.67.23 1.14.628 2.224.739 3.37l-.038.53c.021.865-.009 1.734-.028 2.596-.02 1.045-.054 2.093.048 3.135.048.508.131 1.013.211 1.517.055.204.116.556.178.748a.868.868 0 01.03.116c.248 1.242.607 2.361.988 3.553a3.304 3.304 0 01-.628-.142c-.27-.119-.548-.23-.826-.335-.341-.132-.697-.274-1.058-.4-.815-.319-1.615-.68-2.366-1.126-.895-.532-1.724-1.125-2.675-1.556-.465-.211-.948-.413-1.357-.72a2.612 2.612 0 01-.445-.44.911.911 0 01-.162-.294v-.004a.343.343 0 01-.022-.122c-.015-.68-.31-1.418-.6-1.97-.184-.345-.789-1.352-1.331-1.27-.121-.893-.632-1.748-1.148-2.452a9.466 9.466 0 00-.975-1.117c-.208-.205-.391-.38-.606-.595-.42-.396-.943-.72-1.414-1.052-.096-.08-.21-.15-.313-.223-.1-.069-.203-.134-.305-.2.258-1.037.41-2.095.484-3.184.032-.453-.425-.577-.741-.41a.379.379 0 00-.134.095.531.531 0 00-.11.158 55.205 55.205 0 01-1.624 2.376 4.742 4.742 0 00-.313-.07 13.76 13.76 0 00-2.258-.461 190.4 190.4 0 00-4.933-.52c-.554-.054-.652.828-.13.954 1.27.299 2.281 1.188 3.144 2.123.272.294.532.6.784.907.1.168.23.359.383.52a9.097 9.097 0 01-.491.33c-1.34.831-2.864 1.269-4.396 1.598a16.67 16.67 0 01-.727.144c-.333.06-.673.06-1.004-.002-.233-.04-.466-.087-.697-.136-1.53-.33-3.056-.767-4.394-1.6a7.976 7.976 0 01-.4-.265l.2-.38c.104-.199.229-.382.373-.553.163-.192.329-.383.503-.569.861-.935 1.873-1.822 3.143-2.123.523-.124.424-1.006-.131-.952-1.646.156-3.29.318-4.931.519-.738.09-1.45.228-2.146.43-.09.025-.175.062-.257.108l-.034.019c-.26-.32-.536-.667-.806-.98-.331-.48-.637-.932-.952-1.412a.544.544 0 00-.243-.253c-.319-.167-.776-.045-.744.41.075 1.092.224 2.152.484 3.191l-.11.075c-.662.406-1.267.8-1.833 1.335-.318.252-.487.439-.697.645-.306.3-.596.62-.854.961-.556.728-1.137 1.647-1.263 2.605-.544-.08-1.15.926-1.332 1.273-.3.567-.603 1.334-.603 2.031a5.075 5.075 0 00-.07.218c-.167.209-.336.413-.557.579-.41.308-.894.51-1.358.72-.95.433-1.781 1.028-2.674 1.556-.753.448-1.551.807-2.366 1.126-.361.126-.719.267-1.06.4-.276.106-.554.216-.826.335-.21.067-.42.119-.626.141.388-1.215.758-2.483 1.005-3.757.068-.218.13-.44.189-.66.082-.504.164-1.008.212-1.517.101-1.041.069-2.09.048-3.132-.018-.862-.048-1.732-.027-2.596.002-.08.005-.16.009-.239-.014-.098.043-.468.028-.563.107-1.146.433-1.96.664-3.1.24-1.205.373-2.452.2-3.67.237.197.493.349.732.427 1.107.36 2.512-.057 3.063-1.126.452-.872.274-2.032-.292-2.85a2.07 2.07 0 00-1.346-1.115c.29-.073.581-.137.868-.216.836-.23 1.649-.524 2.444-.864 1.617-.693 3.133-1.608 4.456-2.766 2.606-2.28 4.435-5.529 5.689-8.709.363-.92.706-1.923.98-2.874.263-.907.603-1.778.657-2.726.007-.132-.19-.182-.25-.067-.379.71-.62 1.557-.887 2.315a25.91 25.91 0 01-.977 2.43c-.727 1.545-1.457 3.088-2.39 4.524-.944 1.45-1.97 2.88-3.286 4.02-1.274 1.104-2.802 1.98-4.351 2.643-.879.377-1.795.675-2.724.903-.313.078-.662.144-1 .241.303-.565.527-1.183.778-1.773.222-.522.5-1.018.776-1.514.202.09.403.174.608.255 1.183.471 2.414.588 3.48-.22.974-.738 1.453-1.93 1.398-3.135-.054-1.215-.506-2.593-1.623-3.23a.595.595 0 00-.217-.076c-.114-.372-.33-.709-.61-1.045a12.97 12.97 0 00-.532-.605 5.288 5.288 0 00-1.983-1.527 4.733 4.733 0 00-2.706-.344c-.434.075-1.122.245-1.562.59l-.09-.005c-.696-.677-1.93-.813-2.841-.654a3.535 3.535 0 00-2.375 1.62c-.534.849-.762 1.887-.454 2.86.155.5.43.932.73 1.36.13.185.25.367.378.54-.05.116-.1.227-.165.332-.174.273-.326.561-.495.837-.348.572-.658 1.155-.86 1.792-.09.276-.159.56-.209.85l-.094-.51c-.153-.8-.26-1.611-.336-2.422a27.129 27.129 0 01.016-5c.151-1.614.432-3.227.879-4.787.44-1.546 1.04-3.034 1.583-4.544.308-.86.754-1.682 1.18-2.49.431-.816.844-1.64 1.252-2.465.083-.173-.143-.3-.255-.148-1.003 1.35-1.741 2.812-2.497 4.306-.376.74-.755 1.457-1.062 2.23a35 35 0 00-.828 2.305c-1.033 3.253-1.657 6.617-1.545 10.038a22.922 22.922 0 00.34 3.225 2.904 2.904 0 00-2.201.002 2.644 2.644 0 00-.99.713c-.405.46-.604 1.091-.634 1.693-.059 1.201.639 2.23 1.674 2.57-1.01.473-1.92 1.153-2.782 1.861-1.142.939-2.176 2-3.177 3.081a111.028 111.028 0 00-3.046 3.407c-.302.354-.603.71-.898 1.07-.365.428-.72.864-1.07 1.308-.28-1.257-.547-2.516-.746-3.786a33.04 33.04 0 01-.292-2.509 25.8 25.8 0 00-.1-1.073c.397-.533.666-1.165.824-1.835.17-.734.407-1.406.708-2.098.245-.565.5-1.122.68-1.709a2.26 2.26 0 01.144-.2c.147-.177.304-.345.455-.518.057-.064.117-.12.183-.176.313-.258.592-.549.811-.91.322-.53.496-1.142.512-1.758.08-.029.162-.057.244-.09a10.15 10.15 0 002.16-1.127c1.334-.914 2.453-2.09 3.392-3.398 1.051-1.463 1.916-3.118 2.38-4.863.256-.961.411-1.946.637-2.916.224-.965.5-1.918.806-2.862a97.268 97.268 0 011.094-3.2c.174-.481.318-.975.487-1.459.079-.218.166-.43.253-.643.181-.288.367-.573.557-.853.106-.154.044-.445-.105-.462-.079-.089-.287-.004-.4.064-.744.437-1.377 1.048-2.039 1.6-.676.565-1.318 1.167-1.973 1.757-.615.554-1.242 1.11-1.916 1.596-.672.486-1.396.889-2.102 1.319a17.828 17.828 0 00-6.175 6.323c-.432.748-.841 1.559-1.373 2.255l-.246.297a4.224 4.224 0 01-1.108.92 2.106 2.106 0 01-.188-.591 22.453 22.453 0 01-.237-1.54 18.41 18.41 0 01-.115-2.851c.072-1.936.51-3.896 1.396-5.631 1.782-3.487 5.312-5.631 8.7-7.344 1.105-.556 2.227-1.082 3.34-1.624a77.16 77.16 0 001.588-.79c.441-.226 1.058-.45 1.03-1.039a.473.473 0 00-.468-.467.673.673 0 00-.06-.002.61.61 0 00-.166-.029 15.888 15.888 0 00-1.74.022C23.02-.02 20.833.289 18.71.794c-2.481.591-4.952 1.397-7.213 2.585-3.183 1.672-5.73 4.244-7.578 7.267a11.8 11.8 0 00-.993 1.504 25.893 25.893 0 00-1.572 3.28C.458 17.682-.054 20.11.005 22.54c.103 4.157 2.015 8.437 5.642 10.685.473.293.979.546 1.52.67.015.042.031.083.044.125.085.26.183.518.249.783.133.548.034 1.13.21 1.667.162.485.475.878.877 1.149.23 1.841-.022 3.727.459 5.54.252.962.653 1.881 1.13 2.754.257.478.531.948.803 1.417.207.358.393.765.637 1.112-.178.328-.35.659-.514.995a24.87 24.87 0 00-.697 1.587 22.38 22.38 0 00-1.434 3.575 19.878 19.878 0 00-.719 3.42 9.513 9.513 0 00-.018 1.997c-.206.276-.36.62-.48.883-.194.445-.421.921-.603 1.378-.023.059-.05.117-.082.174-.464.864-.688 1.507-.937 2.241-.402 1.187-.708 2.464-.77 3.719-.041.8-.024 1.641.233 2.4-.159.448-.18 1-.217 1.391a12.708 12.708 0 00-.022 2.283c.094 1.029.457 1.99 1.192 2.665a5.3 5.3 0 00.029.402c.046.466.103.933.163 1.4.123.921.29 1.839.504 2.746.2.853.432 1.673.894 2.427.214.349.527.743.9 1.011.049.356.19.694.337 1.045.199.474.416.942.65 1.402a16.42 16.42 0 001.673 2.683 10.397 10.397 0 002.213 2.136c.25.177.622.409 1.026.593.19.256.47.476.678.636.482.368 1.033.642 1.57.92.5.26 1.306.52 1.477 1.116.18.63-.066 1.427-.107 2.07-.081 1.31-.096 2.711 1.07 3.57.994.731 2.365.607 3.248-.229.04.077.082.149.12.22.227.414.472.822.748 1.206.502.705 1.135 1.241 1.99 1.455.228.117.484.193.668.24.6.149 1.218.127 1.823.014a5.619 5.619 0 001.818-.696c.354-.211.806-.487 1.067-.848 1.128.175 2.297-.052 3.325-.532.754-.35 1.241-.88 1.528-1.538.46-.456.804-1.026 1.083-1.635.205-.45.345-.912.509-1.38.071-.205.163-.222.36-.323.214-.114.405-.248.61-.376.763-.478 1.561-.887 2.14-1.599.133-.16.248-.336.352-.519a4.97 4.97 0 00.692-1.709c.158-.495.222-1.02.154-1.537-.156-1.2-1.119-2.137-2.17-2.656-1.085-.534-2.295-.695-3.488-.53a7.372 7.372 0 00-.77.146c.056-.2.094-.404.104-.612.043-.686-.143-1.52-.624-2.035-.518-.558-1.22-.38-1.654.165-.97 1.216-1.955 2.447-3.293 3.282-1.295.81-2.926 1.214-4.422.76-.87-.262-1.594-.858-2.3-1.407-.33-.259-.78-.682-1.244-.845a1.712 1.712 0 00-.227-.193 7.397 7.397 0 00-.383-1.932 8.575 8.575 0 00-.135-.39 25.276 25.276 0 00-.018-.913c-.025-.707-.017-1.547-.234-2.264.33-.777.444-1.625.464-2.468.014-.508.057-1.079.043-1.636a7.83 7.83 0 01.08-.447c.012-.019.028-.037.042-.056.543-.754.879-1.723 1.034-2.631.128-.755.233-1.702-.084-2.44.585-.693.854-1.541 1.345-2.306.208-.326.451-.623.712-.907a7.684 7.684 0 001.143-.639c.934-.643 1.78-1.399 2.565-2.214.802-.83 1.614-1.694 2.231-2.67.423-.67.867-1.323 1.306-2.173.067-.125.133-.251.197-.38.285.031.58.024.827.033.596.023 1.197-.014 1.79-.083a13.595 13.595 0 003.634-.937c.564-.233 1.092-.526 1.639-.8.62-.31 1.236-.308 1.912-.377.565-.06 1.13-.14 1.654-.362.205-.086.429-.184.633-.307.132.017.273.013.402.026.134.014.265.034.395.058.084.027.166.055.25.09.55.233 1.088.502 1.645.725l.156.062c.4.223.8.448 1.22.634 1.552.692 3.25 1.08 4.955 1.089 1.755.009 3.462-.38 5.08-1.038a35.952 35.952 0 003.264-1.491c1.06.563 2.178 1.052 3.272 1.496 1.62.66 3.326 1.047 5.08 1.037 1.886-.01 3.766-.484 5.447-1.322.205-.1.397-.216.594-.327a2.052 2.052 0 01.292-.135c.555-.225 1.092-.492 1.644-.726h.001c.134-.057.276-.096.419-.118.074-.011.149-.022.224-.029.236-.021.475.025.69.128.117.056.233.106.343.15.528.221 1.09.305 1.656.363.674.07 1.29.07 1.913.38.544.274 1.074.564 1.638.8 1.165.481 2.38.79 3.632.936.593.07 1.194.105 1.79.084.249-.01.542-.002.827-.034.066.127.13.255.198.38.475.845.883 1.502 1.307 2.173.617.976 1.428 1.84 2.229 2.669.785.816 1.633 1.573 2.567 2.215.365.252.745.455 1.142.64.261.281.505.58.713.904.49.767.758 1.615 1.345 2.306-.317.74-.214 1.688-.085 2.442.154.908.492 1.877 1.033 2.63l.046.058c.029.147.054.297.077.446-.012.558.03 1.128.043 1.634.023.843.133 1.693.467 2.47-.219.718-.213 1.557-.238 2.264-.011.304-.016.609-.018.913a14.62 14.62 0 00-.135.39 7.49 7.49 0 00-.381 1.932l-.227.193c-.465.163-.915.586-1.246.843-.706.55-1.428 1.147-2.3 1.41-1.496.453-3.127.05-4.42-.76-1.338-.836-2.323-2.067-3.294-3.283-.435-.544-1.136-.723-1.655-.167-.48.517-.667 1.35-.624 2.035.012.21.05.414.105.614a6.585 6.585 0 00-.77-.146c-1.194-.167-2.404-.004-3.487.53-1.053.52-2.016 1.456-2.172 2.657a3.57 3.57 0 00.154 1.535c.127.611.358 1.195.693 1.71.103.183.22.357.352.52.578.71 1.378 1.12 2.14 1.599.205.127.395.262.61.375.196.1.29.117.361.324.162.465.302.93.509 1.38.277.607.622 1.177 1.083 1.634.288.659.772 1.188 1.526 1.539 1.028.479 2.197.706 3.327.531.26.359.713.637 1.07.848a5.61 5.61 0 001.813.694c.605.115 1.224.135 1.824-.014a3.03 3.03 0 00.667-.237c.857-.214 1.489-.753 1.992-1.458.274-.384.521-.789.747-1.204l.121-.219c.881.836 2.252.96 3.248.228 1.166-.859 1.153-2.26 1.07-3.572-.041-.64-.287-1.438-.107-2.068.169-.595.975-.857 1.476-1.115.537-.278 1.087-.553 1.569-.921.208-.16.489-.38.678-.636a6.766 6.766 0 001.028-.593 10.334 10.334 0 002.213-2.138c.649-.832 1.194-1.74 1.672-2.68.233-.46.452-.928.651-1.403.144-.352.288-.689.335-1.046.373-.268.686-.663.902-1.011.462-.755.691-1.575.893-2.428.213-.905.382-1.822.503-2.746.062-.466.117-.932.165-1.4.013-.136.025-.269.027-.4.737-.675 1.097-1.636 1.194-2.665.069-.754.046-1.531-.023-2.284-.036-.391-.059-.944-.216-1.39.256-.76.273-1.601.233-2.4-.062-1.255-.366-2.534-.77-3.72-.258-.758-.565-1.634-1.032-2.357-.186-.483-.384-.96-.592-1.434-.116-.266-.27-.608-.48-.886a9.09 9.09 0 00-.018-1.997 19.906 19.906 0 00-.719-3.418 22.43 22.43 0 00-1.434-3.575 22.833 22.833 0 00-.695-1.587 23.853 23.853 0 00-.516-.996c.245-.346.431-.753.637-1.11.272-.47.546-.941.808-1.42.474-.87.873-1.79 1.127-2.753.479-1.813.228-3.699.458-5.539.404-.27.716-.664.876-1.15.178-.537.079-1.118.212-1.665.066-.266.162-.523.247-.783l.045-.127c.541-.123 1.048-.376 1.519-.668 3.627-2.25 5.541-6.53 5.644-10.685.059-2.431-.455-4.857-1.348-7.112a26.061 26.061 0 00-1.572-3.279 12.328 12.328 0 00-.993-1.505c-1.848-3.023-4.396-5.594-7.578-7.266-2.261-1.19-4.734-1.994-7.214-2.585-2.123-.507-4.311-.813-6.494-.758a15.41 15.41 0 00-1.74-.021.51.51 0 00-.162.028h-.062a.479.479 0 00-.47.47c-.026.587.591.81 1.03 1.037.527.27 1.059.531 1.589.792 1.114.54 2.234 1.066 3.339 1.623 3.392 1.713 6.92 3.857 8.7 7.344.886 1.733 1.324 3.694 1.397 5.631.037.95-.004 1.905-.112 2.85a22.114 22.114 0 01-.241 1.541c-.039.2-.09.41-.188.592a4.257 4.257 0 01-1.108-.92l-.242-.3c-.535-.694-.945-1.505-1.375-2.253a17.879 17.879 0 00-6.175-6.325c-.706-.43-1.43-.832-2.102-1.317-.676-.485-1.3-1.042-1.918-1.597-.653-.588-1.297-1.19-1.973-1.755-.66-.553-1.295-1.164-2.037-1.603a.261.261 0 00-.266.012c-.05.034-.104.057-.155.086-.105.056-.17.182-.085.302.165.247.33.494.489.747.044.071.083.146.115.224l.778 1.978zM39.238 35.083c.13.666-.217 1.445-.943 1.557-.657.104-1.356-.358-1.58-.967a1.122 1.122 0 01-.066-.498.956.956 0 01.137-.55c.027-.041.048-.084.07-.128.111-.243.3-.45.567-.56.834-.343 1.656.339 1.815 1.146zm-9.235-6.566c.164-.703.495-1.346.767-2.011.123-.302.25-.597.319-.914a2 2 0 00.106.11c.438.423.854.846 1.222 1.326.39.51.598 1.073.908 1.617.236.198.458.297.691-.015.242-.325.322-.711.34-1.113a.793.793 0 00-.007-.145 1.718 1.718 0 00-.039-.206 5.128 5.128 0 01-.105-.498l-.007-.009c-.22-.74-.804-1.396-1.452-1.754-.202-.112-.412-.211-.62-.312-.226-.15-.452-.297-.673-.457a3.053 3.053 0 01-.608-.556c-.025-.018-.053-.033-.082-.051-.094-.128-.189-.26-.288-.384a2.749 2.749 0 01-.16-.413c-.314-1.082.037-2.336.978-2.998.436-.306.971-.453 1.503-.471a.21.21 0 01.105.025l.005.003c.054.029.104.06.148.094.523.41.582.995.696 1.551.048.241.405.408.613.248.753-.574 1.603-1.2 2.58-1.28.153-.014.432-.04.581-.029.07.006.14.006.209.002.708-.028 1.298.137 1.944.47.487.251.916.584 1.282.974.077.17.16.338.214.513.13.436.107.884.188 1.326.016.08.038.16.064.24.002.095.016.19.036.276.053.251.183.52.41.646.031.083.099.15.214.177.246.071.504.112.742.2.217.08.324.26.505.377.043.252.063.496.059.718-.016.936-.486 1.866-1.364 2.273-.973.45-2.08-.1-3.02-.384-.549-.165-1.1-.311-1.646-.483-.502-.16-.941-.337-1.468-.259-.026.004-.026.034-.014.05.459.542 1.211.726 1.84 1.027.27.129.54.257.812.38-.334.383-.588.82-.864 1.26-.363.58-.722 1.163-1.094 1.738-.367.57-.813 1.066-1.24 1.589-.196.239-.411.497-.589.776-.605-.764-1.283-1.444-2.233-1.793-.882-.324-1.768-.462-2.502-1.036l-.032-.129c-.173-.742-.146-1.546.026-2.286zm-4.95 1.68c-.03-.704.624-1.304 1.309-1.304.733 0 1.275.598 1.308 1.305.033.703-.625 1.301-1.308 1.301-.733 0-1.277-.597-1.31-1.301zm-10.277-9.491l.014.777c.007.351.017.743.098 1.079.018.07.118.081.153.021.336-.572.424-1.33.52-1.976a5.82 5.82 0 00.046-.98c0-.125.01-.252.012-.376a20.69 20.69 0 011.44-2.22 6.267 6.267 0 000 .41c.012.387.051.494-.063 1.181-.07.413-.252.8-.318 1.206-.025.165.151.285.285.165.547-.494.695-1.48.837-2.168.132-.627.262-1.278.209-1.925a16.996 16.996 0 011.624-1.53 6.86 6.86 0 00-.11.556 9.327 9.327 0 01-.203 1.087c-.104.388-.276.76-.367 1.153-.057.24.246.35.383.161.459-.632.749-1.507 1.03-2.233.144-.373.284-.963.227-1.457.183-.127.369-.255.555-.375.7-.448 1.428-.843 2.115-1.305.701-.47 1.348-1.01 1.975-1.573.49-.446.985-.896 1.47-1.354-.431.747-.785 1.542-1.114 2.334-.853 2.055-1.445 4.205-2.211 6.29-.662 1.81-1.486 3.594-2.683 5.12-.33.42-.692.826-1.082 1.2-.448.299-.852.67-1.321.945-.748.439-1.605.681-2.477.605-.878-.078-1.515-.508-1.76-1.366-.237-.822-.316-1.734.111-2.505l.605-.947zM7.62 31.8a6.763 6.763 0 01-1.446-.701c-.872-.64-1.567-1.505-2.1-2.467-1.92-3.464-2.274-7.53-1.625-11.375.155-.916.352-1.817.585-2.713.016-.062.037-.12.062-.179.797-1.89 1.833-3.69 3.124-5.288 1.42-1.751 3.124-3.256 5.08-4.393 2.119-1.227 4.46-2.031 6.822-2.656.319-.083.637-.163.957-.236-2.307 1.305-3.838 3.37-5.158 5.603-.365.52-.707 1.057-1.014 1.615a17.348 17.348 0 00-1.139 2.477c-.18.491-.393 1.066-.49 1.635a15.126 15.126 0 00-.629 3.924.15.15 0 01-.13.141h-.001a.2.2 0 01-.193-.08l-.005-.008a1.554 1.554 0 01-.06-.087 1.137 1.137 0 01-.167-.374 6.802 6.802 0 01-.074-.325l-.023-.133a1.69 1.69 0 01-.012-.188c-.012-.773.025-1.547.089-2.321.014-.172.018-.347.021-.523.01-.403.125-.818.056-1.22-.033-.184-.317-.21-.4-.051-.179.334-.203.738-.289 1.105-.082.345-.158.69-.213 1.043-.125.8-.22 1.611-.214 2.424.009 1.452.315 2.872.966 4.174.585 1.169 1.375 2.217 2.086 3.308.35.538.7 1.085.99 1.66.16.32.299.643.409.983l.003.013c.02.102.041.204.057.303.129.788.208 1.71-.07 2.475-.264.728-.729 1.104-1.285 1.612-.285.26-.55.444-.858.639a2.53 2.53 0 01-.896.358h-.005A5.358 5.358 0 017.62 31.8zm3.632 6.492a.935.935 0 01.24.246c.21.322.331.72.427 1.073.06.209.105.42.148.632.31 1.133.54 2.341.589 2.62.154.89.382 1.827.3 2.735a2.937 2.937 0 01-.297 1.03c-.204.312-.4.627-.592.948-.12-.202-.249-.402-.364-.597-.26-.45-.525-.898-.781-1.35-.516-.92-.938-1.88-1.194-2.905-.247-.999-.278-1.989-.306-3.01-.013-.471-.029-.946-.114-1.41a7.621 7.621 0 00-.076-.363v-.003l.02.005a.556.556 0 00-.017-.044.884.884 0 00.002-.124c.115.1.244.173.407.159.064-.007.125-.053.125-.124-.014-.29-.26-.425-.461-.602a1.45 1.45 0 00-.105-.088.992.992 0 01-.252-.323c-.278-.368-.323-.777-.323-1.221.002-.525.02-1.102-.175-1.594.353-.016.708-.053 1.056-.085.473-.041.977-.083 1.48-.156.151.19.313.37.434.584.203.356.322.742.335 1.155.02.836-.456 1.594-1.103 2.095-.118.088-.116.233-.055.352.106.021.206.059.293.106l.36.259zm17.67 54.74c-.103.013-.118.106-.068.163.109.119.226.23.352.333.196.182.436.338.675.476.372.227.761.43 1.117.64.724.423 1.457.87 2.099 1.414.578.487 1.092 1.056 1.453 1.723.194.358.324.733.411 1.13l-.002.002a5.073 5.073 0 00-.829-.802c-.551-.424-1.23-.83-1.951-.696-.064.01-.078.097-.038.14.436.45 1.015.73 1.47 1.163.471.453.847.997 1.08 1.61a.61.61 0 01.035.257v.014c-.226.249-.523.43-.891.566l-.004.002a.946.946 0 01-.555.028c-.274-.067-.549-.093-.82-.24a5.979 5.979 0 01-.94-.645 9.292 9.292 0 01-.757-.737c-.233-.242-.457-.57-.75-.74-.075-.04-.146.014-.155.09-.052.381.178.826.363 1.15.222.389.528.745.845 1.062.103.105.23.223.373.345a3.513 3.513 0 01-1.358-.417c-.609-.342-1.148-.845-1.66-1.31-.523-.477-1.002-1-1.518-1.481-.39-.367-.955-.926-1.533-.847-.073.01-.114.105-.096.167.07.232.244.41.41.58.234.241.458.488.677.74.432.5.832 1.024 1.275 1.517.386.43.79.853 1.237 1.216-.547.112-1.07.319-1.65.246-.622-.076-1.218-.366-1.732-.717-1.117-.767-1.843-1.989-2.572-3.095-.767-1.165-1.578-2.265-2.735-3.07-.6-.417-1.241-.776-1.87-1.15-.301-.18-.6-.366-.906-.54.905-.119 1.885-.516 2.248-1.291-.26.11-.523.209-.768.303-.591.226-1.224.372-1.86.32-.787-.065-1.39-.319-2.196-.816-.24-.13-.395-.303-.614-.46-.003-.004-.007-.006-.012-.01a7.049 7.049 0 01-.714-.716c-.807-.934-1.444-2.014-2.054-3.08a54.794 54.794 0 01-.879-1.6l-.245-.473c.51.118 1.051.115 1.382-.158.057-.046.04-.156-.024-.186-.343-.165-.755-.119-1.118-.246a2.702 2.702 0 01-.363-.16c-.04-.023-.079-.045-.112-.076a.186.186 0 00-.034-.03 3.67 3.67 0 00-.345-.214 3.59 3.59 0 01-.219-.186c-.42-.388-.706-.876-.905-1.4-.173-.57-.294-1.16-.42-1.74-.09-.61-.151-1.228-.232-1.837-.06-.484-.096-.987-.165-1.481.21.087.463.13.648.177.414.11.81.156 1.234.062.404-.089.432-.538.052-.72-.075-.036-.15-.07-.221-.112-.151-.089-.315-.147-.49-.24-.25-.13-.47-.299-.694-.472-.493-.383-.912-.848-1.182-1.416-.329-.695-.341-1.476-.354-2.229-.003-.141-.001-.286 0-.435.182.117.376.218.584.3.4.153 1.024.405 1.425.148a.208.208 0 00.082-.09.252.252 0 00-.022-.41c-1.857-1.228-2.332-3.313-1.95-5.407.05-.282.112-.561.18-.838.053-.205.12-.41.205-.602.067-.143.114-.29.146-.397.122-.426.245-.851.373-1.274.023-.06.046-.124.07-.183.202-.536.42-1.06.638-1.59.025-.06.053-.13.087-.198.562 1.807 1.795 3.446 3.236 4.652.002.001.004.001.005.003.097.085.19.167.29.246.24.197.5.42.79.554 1.436.95 3.065 1.596 4.737 2.007 1.169.287 2.409.528 3.638.565.06.002.103.053.093.111a3.08 3.08 0 01-.146.554c-.237.629-.69 1.109-1.256 1.462-.57.355-1.194.584-1.825.803-.372.13-.746.268-1.13.349-.343.07-.745.03-1.044.232-.068.046-.103.137-.055.213.183.297.505.4.97.522.375.097.535.07.935.09.112.006.226-.007.341-.016a5.29 5.29 0 002.366-.377c.002.163 0 .32-.012.464-.062.682-.223 1.374-.576 1.965a2.97 2.97 0 01-.84.897c-.317.12-.64.221-.968.311-.338.094-.678.172-1.014.27-.252.074-.528.09-.736.26-.05.039-.068.124-.046.18l.02.055c.004.01.01.018.015.029.012.04.036.078.075.108.678.536 1.903.536 2.72.418.1-.016.194-.032.29-.05-.05.89.017 1.804-.334 2.65a3.753 3.753 0 01-1.038 1.425 2.724 2.724 0 01-.357.246c-.01.008-.016.016-.027.024-.468.372-1.003.622-1.49.955.006.108.01.188.122.198a.588.588 0 00.201.046c1.101-.009 1.75.06 2.547-.244.086.044.19.111.267.18.208.187.336.413.463.657v.004c.08.324.208.64.327.967.139.388.263.79.365 1.193a9.28 9.28 0 01.2 1.762c.004.354-.037.692-.122 1.035-.036.14-.082.279-.123.415-.092.19-.204.372-.247.578-.029.136.103.235.23.173.515-.246.768-.986.974-1.475l.041-.102c.54.037 1.311.729 1.589.917a8.18 8.18 0 002.2 1.071c1.594.501 3.3.561 4.945.303 1.166-.184 2.445-.538 3.414-1.266.356-.278.352-.27.927-.613a1.42 1.42 0 01.318-.141c.383-.114.767-.227 1.164-.3.957-.173 1.974-.097 2.88.273.467.193.967.496 1.337.89-.6-.008-1.218.093-1.786.174-.475.07-.944.165-1.405.298-.41.117-.932.22-1.254.51a.08.08 0 00.035.138c.356.085.762-.036 1.118-.092.483-.076.965-.156 1.453-.204.722-.067 1.372.07 2.042.234.231.055.383.27.361.506a2.66 2.66 0 01-.082.47.78.78 0 01-.654.582c-.349.046-.703.05-1.067.028a7.824 7.824 0 00-.837-.02c-.245.008-.4-.034-.756-.008-.149.01-.217.112-.147.253.108.218.343.427.592.57.304.174.66.248 1.003.297.3.04.6.07.899.072-.342.319-.787.462-1.242.54-1.039.173-2.233.212-3.275.055-1.113-.17-2.192-.595-3.221-1.018-.41-.168-.82-.33-1.233-.487-.468-.177-1.101-.438-1.639-.411h-.019l-.176-.009zm3.136-46.295c.057.065.112.132.169.194.231.357.292.865.302 1.256.024.72-.035 1.468-.156 2.178-.183 1.082-.507 2.146-.822 3.205a.849.849 0 00-.04.08c-.154.333-.29.676-.415 1.021-.244.654-.49 1.306-.732 1.959a39.82 39.82 0 01-1.659 3.892 24.363 24.363 0 01-2.174 3.604c-.219.299-.448.59-.688.87a2.827 2.827 0 01-.34.327 16.886 16.886 0 01-3.43 2.137c-.663.316-1.35.595-2.047.829a7.69 7.69 0 01-.802.218 2.473 2.473 0 01-.47.06c-.164.007-.327.01-.493.018l-.804-.089c-1.674-.432-3.298-1.13-4.68-2.162a2.885 2.885 0 01-.692-.739l-.114-.183a11.627 11.627 0 01-1.293-3.105c-.313-1.248-.432-2.534-.422-3.821.006-.578.048-1.153.084-1.728.018-.266.027-.532.043-.8l.015-.047c.02-.081.036-.165.049-.248.056-.343.128-.683.217-1.02.149-.543.252-1.11.42-1.645.257-.829.567-1.641.923-2.434.65-1.444 1.435-2.813 2.3-4.136a.726.726 0 00.051-.056c.495-.604.897-1.287 1.365-1.914.02-.025.04-.052.058-.078a35.715 35.715 0 013.012-3.274.32.32 0 01.26-.089h.002c.213.027.539.098.713.237.261.21.601-.009.53-.308l.005-.003a.91.91 0 00-.114-.292 1.556 1.556 0 01-.076-.507.69.69 0 01.224-.49c.578-.528 1.163-1.047 1.748-1.562.783-.69 1.591-1.35 2.372-2.04.421-.37.848-.737 1.256-1.121l.11-.092.057-.045c.584-.431 1.197-.848 1.852-1.167a4.96 4.96 0 011.18-.398c.127-.007.254-.012.378-.016.404.014.804.018 1.204.114.667.159 1.276.492 1.817.904.215.163.426.34.628.526.295.358.55.753.76 1.165.433.865.648 1.87.721 2.83.04.52.048 1.043.068 1.566.004.13-.004.258-.025.386-.062.373-.14.74-.231 1.09a9.63 9.63 0 01-.96 2.4c-.2.347-.41.697-.648 1.021-.145.197-.337.365-.466.565a3.64 3.64 0 00-.32.342c-.1.119-.09.25.012.35l.208.265zm11.666 9.989l-.023.094a.86.86 0 01-.16.302c-.086.101-.168.204-.26.293-.319.304-.746.525-1.157.674-.105.039-.21.073-.316.103a1.362 1.362 0 01-.573.039c-.18-.029-.356-.062-.534-.092-.373-.066-.909-.305-1.284-.18-.32.109-.375.493-.606.706-.367.336-.92.544-1.377.722a7.88 7.88 0 01-1.422.407c-.547.103-1.1.071-1.649.027-.49-.039-.89-.053-1.446-.135-.059-.008-.125-.014-.196-.026.218-.51.419-1.029.606-1.551.329-.22.52-.348.965-.509.8-.26.884-.311 1.265-.45.681-.25 1.359-.527 2.017-.842a.42.42 0 01.605.26c.059.177.349.206.391 0 .196-.935 1.406-1.617 2.169-2.036.477-.264.866-.49 1.42-.445.229.016.531.028.764.124.304.124.127.036.554.319.005.003.017.023.037.05.128.175.211.38.23.598l.001.005c.043.501.109 1.05-.021 1.543zm22.31-14.611c.888.09 1.783.106 2.667.235.354.052.699.12 1.037.202.453.154.763.284 1.135.441.414.177.816.368 1.204.595.754.437 1.395 1.018 2.112 1.502.05.032.094.07.137.111.279.278.663.656.964 1.004a17.7 17.7 0 011.686 2.347.524.524 0 00-.04.092c-.207.614-1.184.657-1.716.614-.674-.055-1.355-.285-1.981-.556a2.116 2.116 0 01-.356-.703c-.135-.49-.109-1.1-.432-1.517-.047-.059-.153-.087-.194 0-.207.447-.162 1.115-.038 1.654-.26-.347-.702-.615-1.012-.893-.083-.218-.178-.434-.24-.636-.089-.29-.15-.588-.222-.882a1.67 1.67 0 01-.045-.43c.006-.218-.009-.426-.083-.605-.047-.105-.226-.177-.287-.038-.185.436-.064.983-.06 1.449 0 .1 0 .2.002.301a63.766 63.766 0 00-1.023-.901l-.047-.055c-.114-.135-.224-.271-.34-.408a3.84 3.84 0 01-.067-.25c-.082-.353-.021-.796-.212-1.11-.067-.111-.252-.125-.318 0-.093.181-.094.396-.064.612-.667-.8-1.36-1.562-2.167-2.175zm-13.003.588a.85.85 0 01.372-.188c.293-.069.592-.126.896-.17.883-.127 1.777-.145 2.665-.235-.594.451-1.126.984-1.63 1.55.022-.152.047-.302-.034-.444-.044-.078-.168-.122-.245-.063-.18.13-.208.334-.213.547-.006.16-.002.33.037.488-.078.093-.157.185-.235.28h.01l-.058.055a2.063 2.063 0 00-.107.105 5.37 5.37 0 01-.42-.383 16.777 16.777 0 01-1.19-1.416l.152-.126zm-2.795-2.129c.05-.107.2-.115.26-.014.108.183.206.381.249.443.192.296.38.597.558.901.314.531.648 1.048 1.018 1.543.4.532.826 1.05 1.302 1.517.26.26.466.44.865.751.836.89 1.914 1.565 3.035 2.07a28.845 28.845 0 01-2.302-.204c-.386-.047-.769-.118-1.155-.177-.2-.085-.395-.163-.596-.246a6.252 6.252 0 01-.53-.46 7.583 7.583 0 01-1.36-1.838c-.392-.734-.69-1.521-.947-2.311a8.866 8.866 0 01-.308-1.231c-.04-.248-.057-.496-.09-.742l.001-.002zm-.082 3.48a.108.108 0 01.121.074 8.2 8.2 0 00.454 1.14 7.65 7.65 0 001.396 1.982 9.077 9.077 0 01-1.362.947c.139-.55.194-1.253-.021-1.72-.04-.086-.148-.06-.194 0-.324.417-.296 1.026-.433 1.517a1.79 1.79 0 01-.16.398.93.93 0 01-.473.422c-.546.218-1.128.393-1.704.439-.53.044-1.507.002-1.713-.613a.224.224 0 01.021-.196 17.547 17.547 0 011.626-2.244 13.59 13.59 0 012.282-2.107.088.088 0 01.045-.02l.115-.02zm15.302 3.735c1.034-.463 2.032-1.07 2.838-1.858.282.281.574.556.86.83.153.146.308.29.463.436a.495.495 0 00-.066.1c-.489.973-.91 1.943-1.524 2.854a16.373 16.373 0 01-2.046 2.438 21.765 21.765 0 01-5.34 3.92c-2.03 1.054-4.27 1.754-6.557 1.941a15.162 15.162 0 01-3.584-.116c-1.132-.178-2.315-.433-3.327-.983-1.128-.611-1.836-1.626-2.29-2.803a10.5 10.5 0 01-.26-.742 4.319 4.319 0 01.01-2.527l.087-.277c.05-.164.115-.324.196-.477.145-.279.291-.558.443-.836l.126-.02c.567.539 1.459.738 2.243.73.35.069.727.063 1.039.047.766-.039 1.514-.187 2.257-.371 1.571-.388 3.069-.778 4.7-.8.082-.003.164 0 .245 0a6.376 6.376 0 00-.416.34c-.407.297-.8.615-1.183.938-.035.028-.069.062-.103.094a19.4 19.4 0 01-1.437.89c-.09.052-.046.18.05.186.02 0 .039 0 .06.002.112.01.215.007.32-.004a3.48 3.48 0 001.192-.28.927.927 0 00.07-.028c.556-.235 1.046-.595 1.544-.931.487-.331.997-.641 1.581-.77.356-.078.838-.036 1.27-.084-.183.229-.356.47-.52.709-.329.48-.748.904-1.042 1.406-.046.076.029.163.112.145.5-.113.847-.477 1.223-.81.435-.386.834-.812 1.285-1.182.31-.257.64-.473.979-.675 1.042-.177 2.078-.501 3.075-.868l1.427-.564zm12.971 3.695c.184.592.218 1.219.084 1.822-.096.429-.242.85-.395 1.245-.453 1.178-1.161 2.192-2.29 2.805-1.013.55-2.196.806-3.327.983a15.283 15.283 0 01-3.583.117c-1.814-.15-3.597-.622-5.269-1.334a15.693 15.693 0 001.639-1.429c.47-.467.859-.775 1.428-1.535.126-.13.338-.423.457-.558a22.914 22.914 0 001.645-2.052c.294.1.6.159.924.177.103.012.21.014.318.004h.06c.099-.006.141-.135.052-.188-.32-.179-.64-.37-.955-.57.032-.046.066-.093.094-.139a3.36 3.36 0 00.117-.042c.417.149 1.016.106 1.37.039.525-.103 1.023-.414 1.5-.673.637.147 1.279.26 1.935.294.313.016.689.021 1.04-.046.784.009 1.677-.193 2.244-.73.052.007.073.011.125.02.156.285.307.572.457.86.071.137.13.28.174.427l.156.503zm30.402-29.827c.425.772.346 1.684.112 2.506-.246.858-.884 1.287-1.763 1.365-.872.078-1.726-.165-2.475-.604-.471-.276-.873-.648-1.321-.945-.392-.374-.753-.78-1.084-1.201-1.195-1.525-2.021-3.308-2.682-5.12-.763-2.085-1.356-4.234-2.21-6.29-.329-.793-.683-1.588-1.115-2.333.486.459.978.908 1.471 1.354a17.89 17.89 0 001.973 1.573c.689.46 1.419.857 2.115 1.305.19.12.315.195.498.324.036.657.144 1.134.286 1.509.28.726.572 1.599 1.031 2.23.134.19.437.08.382-.16-.091-.392-.265-.764-.367-1.153a10.22 10.22 0 01-.206-1.085 5.933 5.933 0 00-.107-.556c.575.472 1.118.984 1.624 1.528-.053.644.077 1.3.207 1.926.144.688.29 1.672.839 2.168.132.118.31-.002.283-.165-.066-.407-.25-.793-.318-1.206a6.24 6.24 0 01-.063-1.183 4.648 4.648 0 000-.409c.534.705 1 1.45 1.441 2.219.002.126.013.253.011.38a6.04 6.04 0 00.047.978c.095.647.183 1.405.521 1.975.034.06.133.05.151-.02.085-.338.09-.727.098-1.078.005-.26.011-.52.014-.778l.607.946zm-12.198 7.248c.733 0 1.275.596 1.307 1.303.032.703-.624 1.303-1.307 1.303-.735 0-1.28-.596-1.311-1.303-.03-.703.626-1.303 1.311-1.303zm-10.346 6.772c-.226.608-.923 1.07-1.58.968-.725-.112-1.074-.89-.944-1.557.16-.807.98-1.49 1.814-1.145.267.108.46.313.57.56.019.044.042.086.067.127a.967.967 0 01.139.55c.014.163-.006.33-.066.497zm1.973-1.911c-.18-.278-.397-.539-.59-.776-.43-.522-.876-1.02-1.243-1.588-.37-.577-.729-1.158-1.093-1.74-.276-.439-.53-.876-.865-1.26.272-.122.543-.25.813-.379.628-.303 1.38-.485 1.841-1.027.013-.016.01-.046-.014-.05-.528-.078-.966.098-1.47.257-.546.174-1.097.32-1.645.485-.941.284-2.046.834-3.02.383-.88-.406-1.347-1.337-1.363-2.272a3.49 3.49 0 01.012-.349.862.862 0 01.28-.565.78.78 0 01.273-.18c.237-.09.495-.131.739-.2.115-.027.308-.109.336-.192.32-.368.237-.382.29-.632.012-.06.023-.124.03-.191.006-.055.014-.112.028-.165.017-.055.03-.108.04-.161.083-.441.058-.89.19-1.325.032-.106.073-.207.12-.31a1.27 1.27 0 01.264-.378 4.684 4.684 0 011.11-.799c.682-.352 1.233-.5 2.138-.477.182-.019.415.018.596.032.979.08 1.83.709 2.58 1.282.21.156.565-.006.613-.25.11-.537.171-1.102.646-1.51.064-.051.132-.095.203-.136l.048-.027c.552.01 1.11.158 1.562.473.94.66 1.292 1.916.977 2.997a2.71 2.71 0 01-.16.412c-.1.124-.193.257-.289.386l-.082.052a3.146 3.146 0 01-.606.555c-.223.158-.448.307-.672.457-.21.101-.42.2-.621.31-.65.358-1.233 1.016-1.452 1.755l-.009.009c-.02.163-.062.326-.103.5a1.73 1.73 0 00-.05.277c.013.429.084.84.342 1.185.235.311.455.212.692.014.31-.543.517-1.107.907-1.615.368-.482.786-.905 1.224-1.326.035-.036.07-.075.107-.11.067.317.193.613.316.912.272.664.603 1.31.769 2.013.17.739.197 1.543.025 2.285-.01.044-.02.086-.033.13-.733.573-1.618.712-2.5 1.035-.952.35-1.628 1.03-2.231 1.794zm-8.304 20.582a.695.695 0 01.139-.082c.202-.088.414-.142.638-.152.555-.027 1.053.157 1.528.421.765.42 1.973 1.102 2.169 2.037.044.207.334.178.391 0a.42.42 0 01.278-.287.44.44 0 01.334.03c.657.315 1.332.592 2.014.841.292.108.507.193.795.271.204.057.526.177.715.273.215.106.345.175.498.27a.737.737 0 01.304.38c.14.384.29.766.449 1.142a.143.143 0 01-.121.198h-.002c-.491.037-.996.163-1.486.202a5.977 5.977 0 01-1.661-.103 8.263 8.263 0 01-1.455-.43c-.438-.17-.947-.374-1.293-.689-.23-.214-.287-.597-.605-.707-.376-.124-.91.115-1.284.181-.226.04-.452.081-.678.11a.776.776 0 01-.294-.02 4.521 4.521 0 01-.452-.14c-.412-.152-.84-.372-1.158-.674-.097-.096-.185-.208-.275-.312a.717.717 0 01-.136-.26c-.012-.04-.02-.08-.031-.117-.129-.492-.112-.995-.02-1.542a.742.742 0 01.293-.535l.406-.306zm34.48 7.511c.032.07.062.138.087.2.217.528.436 1.054.638 1.588l.068.185c.13.423.251.848.377 1.275.038.138.173.43.244.698.011.037.037.072.048.11.108.396.162.624.235 1.026.382 2.097-.093 4.181-1.948 5.41a.252.252 0 00-.023.41.23.23 0 00.082.09c.402.256 1.026.005 1.426-.153.208-.078.401-.179.582-.295.002.146.003.293.002.433-.014.755-.027 1.534-.356 2.23-.269.566-.687 1.034-1.179 1.416-.223.174-.445.34-.696.473-.215.112-.414.175-.596.308-.382.044-.503.664-.064.762.423.095.822.049 1.236-.06.185-.048.436-.093.648-.178-.071.493-.105.996-.167 1.477-.081.611-.139 1.231-.232 1.842-.124.579-.247 1.17-.418 1.737-.201.526-.487 1.013-.905 1.403a4.52 4.52 0 01-.219.184c-.116.067-.107.072-.219.155-.026.02-.174.1-.193.123-.145.081-.292.15-.443.201-.364.128-.776.084-1.118.249-.066.03-.081.14-.023.186.329.272.872.276 1.382.155a57.684 57.684 0 01-1.124 2.075c-.612 1.067-1.249 2.147-2.056 3.08a7.058 7.058 0 01-.713.717l-.011.009c-.219.157-.45.306-.69.437a4.02 4.02 0 01-2.121.838c-.635.051-1.268-.092-1.859-.319-.247-.094-.51-.195-.768-.303.361.776 1.341 1.172 2.247 1.291-.305.174-.604.36-.906.54-.63.372-1.27.733-1.87 1.15-1.158.804-1.967 1.905-2.735 3.068-.73 1.109-1.452 2.331-2.573 3.096-.512.352-1.108.642-1.732.718-.58.073-1.102-.136-1.648-.245.445-.363.85-.787 1.237-1.217.443-.492.843-1.017 1.273-1.516.22-.253.445-.5.678-.74.168-.172.34-.349.41-.58.019-.063-.024-.159-.095-.167-.58-.08-1.142.48-1.533.846-.518.482-.995 1.004-1.52 1.48-.512.466-1.05.969-1.656 1.311a3.594 3.594 0 01-1.362.418 7.38 7.38 0 00.375-.345c.319-.318.623-.673.845-1.065.185-.322.413-.767.363-1.147-.009-.076-.08-.133-.157-.09-.293.168-.517.494-.748.738a9.495 9.495 0 01-.757.738c-.29.245-.611.461-.942.642-.274.152-.555.178-.836.245a.85.85 0 01-.516-.024c-.01-.002-.016-.006-.025-.008-.369-.139-.667-.318-.891-.566l-.002-.018a.555.555 0 01.037-.251v-.002a4.392 4.392 0 011.08-1.61c.454-.435 1.034-.713 1.468-1.163.04-.043.028-.13-.036-.142-.72-.133-1.4.275-1.953.698a5.203 5.203 0 00-.83.8c.087-.398.218-.772.412-1.133.359-.664.875-1.232 1.451-1.72.645-.543 1.375-.993 2.1-1.416.357-.207.745-.41 1.117-.64.238-.136.48-.291.675-.474.125-.104.244-.214.351-.333.05-.056.021-.172-.068-.162-.04.003-.138-.043-.181-.036-.004-.002-.244.036-.25.036-.652.09-.865.215-1.36.403-.413.156-.824.315-1.231.483-1.044.43-2.136.867-3.266 1.036-1.042.16-2.234.121-3.275-.054-.453-.076-.9-.222-1.24-.539.297-.003.598-.032.897-.073.343-.05.7-.121 1.003-.297a1.55 1.55 0 00.593-.568c.081-.135.001-.264-.148-.255-.36.023-.512.021-.762.009a6.49 6.49 0 00-.724.012 5.363 5.363 0 01-1.295-.039.639.639 0 01-.503-.448 2.943 2.943 0 01-.117-.666.398.398 0 01.307-.41c.692-.17 1.36-.32 2.103-.249.486.046.968.128 1.452.203.357.058.76.176 1.119.093.062-.014.083-.095.033-.14-.32-.286-.843-.39-1.254-.51-.459-.13-.93-.228-1.405-.296-.568-.081-1.185-.184-1.786-.173.372-.395.873-.7 1.34-.892.903-.37 1.92-.447 2.88-.273.442.081.873.214 1.3.343.021.005.034.027.055.034.523.177.683.319 1.051.678.971.728 2.248 1.082 3.416 1.266 1.643.259 3.351.199 4.943-.304a8.174 8.174 0 002.202-1.07c.276-.19 1.046-.88 1.589-.917a.995.995 0 00.041.1c.204.491.459 1.231.973 1.478.126.062.258-.037.229-.174-.041-.205-.153-.39-.245-.577-.043-.14-.088-.278-.123-.416a4.011 4.011 0 01-.125-1.036c.007-.6.084-1.178.203-1.76.1-.404.224-.806.363-1.195.119-.328.249-.643.328-.967l.001-.004c.125-.244.273-.489.48-.673.077-.07.162-.118.25-.164.795.304 1.497.302 2.424.318.047 0 .285-.032.321-.053h.003a.151.151 0 00.067-.278c-.464-.301-.891-.517-1.318-.857l-.145-.108a2.701 2.701 0 01-.356-.248 3.745 3.745 0 01-1.037-1.422c-.352-.846-.287-1.76-.336-2.653.096.018.193.036.289.05.817.12 2.044.12 2.722-.416a.235.235 0 00.075-.11.154.154 0 00.012-.028l.022-.052c.023-.058.003-.145-.047-.184-.208-.17-.484-.184-.734-.258-.337-.098-.676-.177-1.016-.271-.288-.08-.573-.165-.852-.27a.77.77 0 01-.212-.113 2.902 2.902 0 01-.74-.825c-.357-.591-.515-1.282-.578-1.963a5.356 5.356 0 01-.011-.465 5.299 5.299 0 002.308.381 1.14 1.14 0 01.114 0c.095.007.19.01.282.013.347.001.596-.043.971-.096.534-.094.835-.255.936-.517.032-.083.013-.168-.057-.213-.299-.201-.699-.16-1.042-.232-.386-.081-.76-.22-1.13-.349-.631-.22-1.256-.449-1.827-.803-.566-.353-1.019-.834-1.255-1.463a3.408 3.408 0 01-.164-.662c1.265-.025 2.545-.271 3.75-.569 1.672-.409 3.299-1.057 4.737-2.004.29-.137.549-.358.788-.554.099-.08.196-.163.29-.247.002-.002.003-.003.005-.003 1.445-1.206 2.674-2.844 3.238-4.654zM91.202 46.505c.1-.1.058-.26-.04-.38a4.69 4.69 0 00-.32-.34c-.131-.2-.323-.367-.467-.564a10.75 10.75 0 01-.648-1.022 9.73 9.73 0 01-.96-2.4c-.091-.35-.17-.716-.232-1.09a1.868 1.868 0 01-.023-.386c.018-.522.027-1.047.066-1.567.073-.958.288-1.966.724-2.828a6.24 6.24 0 01.757-1.165 8.66 8.66 0 01.629-.526c.54-.413 1.149-.746 1.816-.905.4-.096.802-.101 1.204-.114.126.004.252.007.377.017a4.86 4.86 0 011.181.396c.67.328 1.297.756 1.891 1.197l.02.014.11.092c.406.387.833.751 1.254 1.123.782.69 1.591 1.35 2.373 2.038a154.81 154.81 0 011.827 1.635.41.41 0 01.13.242c.034.232.011.46-.061.684a.887.887 0 00-.113.292l.005.002c-.071.3.267.519.53.31.174-.142.5-.213.712-.238h.002a.326.326 0 01.268.096 35.665 35.665 0 013.003 3.267l.059.078c.469.625.869 1.31 1.366 1.913.016.02.032.04.049.056.867 1.325 1.651 2.693 2.3 4.135.358.795.668 1.608.924 2.437.19.603.297 1.25.482 1.86.059.199.103.4.128.604.018.15.041.302.077.447a.17.17 0 00.016.05c.015.266.026.532.04.796.038.577.08 1.153.084 1.73.011 1.286-.109 2.571-.422 3.822a11.58 11.58 0 01-1.272 3.068 4.523 4.523 0 01-.481.687c-.114.092-.226.183-.346.271-1.366 1.02-2.762 1.668-4.625 2.15l-.916.097c-.219-.007-.436-.012-.655-.023a8.485 8.485 0 01-1.053-.269 18.415 18.415 0 01-2.045-.829 16.737 16.737 0 01-3.572-2.254c-.029-.023-.052-.048-.077-.074a14.271 14.271 0 01-.81-1.006 24.505 24.505 0 01-2.175-3.603 40.913 40.913 0 01-1.658-3.893c-.243-.653-.489-1.305-.73-1.958a14.614 14.614 0 00-.415-1.022c-.014-.028-.027-.055-.041-.08-.315-1.058-.638-2.123-.822-3.205a11.11 11.11 0 01-.158-2.178c.014-.393.073-.901.306-1.255l.165-.195c.002-.004.004-.005.005-.009l.066-.053.19-.175zm20.903-8.466a1.04 1.04 0 01.294-.107c.062-.118.064-.266-.054-.354-.649-.5-1.126-1.257-1.102-2.093a2.41 2.41 0 01.334-1.154 2.89 2.89 0 01.286-.404.413.413 0 01.372-.15c.427.052.854.09 1.254.125.349.03.705.067 1.057.085-.194.49-.176 1.07-.176 1.594.002.416-.038.802-.271 1.15a1.784 1.784 0 00-.122.224l-.02.04a4.076 4.076 0 00-.267.217c-.199.177-.446.313-.457.602-.004.072.058.118.121.124.163.015.294-.059.407-.158-.001.04 0 .083.004.124a.303.303 0 01-.018.043l.02-.006.002.004c-.029.12-.056.242-.079.365-.082.463-.099.938-.114 1.407-.026 1.024-.059 2.014-.305 3.013-.253 1.025-.677 1.984-1.194 2.904-.253.453-.522.9-.781 1.35-.068.117-.143.236-.217.356a.17.17 0 01-.292-.001 31.18 31.18 0 00-.445-.705 2.928 2.928 0 01-.3-1.03c-.082-.909.146-1.848.302-2.738a34.01 34.01 0 01.587-2.62c.043-.21.091-.42.15-.63.112-.414.254-.885.537-1.227l.487-.35zm6.821-9.402c-.534.962-1.23 1.828-2.1 2.467a6.928 6.928 0 01-1.444.701 5.363 5.363 0 01-2.983.137 2.033 2.033 0 01-.669-.3 10.3 10.3 0 01-.656-.49c-.586-.48-1.285-1.054-1.55-1.781-.279-.765-.199-1.688-.068-2.476.015-.101.034-.202.054-.303l.003-.012c.111-.34.251-.666.411-.985.29-.574.637-1.12.989-1.66.71-1.091 1.502-2.14 2.085-3.307.651-1.302.959-2.722.968-4.174.003-.813-.089-1.623-.214-2.426-.055-.35-.133-.697-.215-1.043-.085-.364-.11-.77-.286-1.103-.084-.16-.368-.133-.401.052-.069.401.045.816.054 1.22.003.173.009.349.023.522.066.802.103 1.602.089 2.405-.011.081-.021.16-.037.237a8.208 8.208 0 01-.093.406.839.839 0 01-.101.23c-.036.05-.07.102-.105.15l-.007.01a.2.2 0 01-.191.079h-.003a.148.148 0 01-.128-.144 15.115 15.115 0 00-.632-3.924c-.094-.568-.308-1.142-.485-1.632a17.872 17.872 0 00-1.141-2.478 19.293 19.293 0 00-1.012-1.616c-1.324-2.231-2.853-4.296-5.162-5.603.32.074.64.152.957.237 2.362.624 4.705 1.427 6.822 2.657 1.957 1.135 3.661 2.64 5.08 4.393 1.313 1.622 2.361 3.451 3.163 5.374.246.926.45 1.86.61 2.805.649 3.846.294 7.912-1.625 11.375z" fill="#B2282D"/><path d="M101.397 42.42c-.895.133-1.462.635-1.996 1.332-.56.732-1.051 1.529-1.882 1.984-.754.414-1.654.543-2.503.621a8.646 8.646 0 01-1.573-.025c-.268-.026-.51.006-.778-.01-.326-.02-.543-.09-.774-.053-.167.026-.235.221-.087.32.254.172.418.25.78.386a8.2 8.2 0 00.737.252c.532.141 1.07.248 1.617.315.97.12 1.94-.055 2.816-.487.916-.452 1.55-1.181 2.063-2.045.249-.418.483-.847.765-1.242.281-.397.532-.804.922-1.094.128-.097.05-.278-.107-.253zM73.21 61.386a.004.004 0 000-.007c-.006 0-.006.007 0 .007zM52.523 133.17a1.244 1.244 0 01-.407.064c-.142 0-.163-.055-.176-.082-.023-.054-.062-.215-.062-.676l.058-1.629c0-.533.077-1.255.23-2.141a.154.154 0 00-.066-.154.159.159 0 00-.169-.002l-.704.438a.154.154 0 00-.054.057c-.092.171-.153.281-.185.338l-.962 1.721c-.166.281-.352.595-.559.938l-.008.014a4.557 4.557 0 00-.091-.263l-.137-.377c-.048-.133-.082-.231-.107-.289l-.163-.415c-.317-.802-.477-1.386-.477-1.735l.001-.147a.15.15 0 00-.152-.159h-.048a3.645 3.645 0 00-.416-.023c-.723 0-1.331.212-1.812.63a2.05 2.05 0 00-.733 1.604c0 .202.03.407.09.608a.156.156 0 00.256.067l.59-.563a.15.15 0 00.03-.186 1.144 1.144 0 01-.15-.552c0-.207 0-.835 1.342-.84l-.405 2.362c-.088.507-.164.845-.226 1.006a.848.848 0 01-.246.331l-.348-.03a.149.149 0 00-.123.045l-.468.446a.151.151 0 00-.037.165.157.157 0 00.137.102l1.549.08a.174.174 0 00.114-.045l.46-.424a.154.154 0 00.041-.165.155.155 0 00-.135-.101l-.489-.037c.087-.087.157-.183.208-.289.1-.209.192-.581.281-1.137l.185-1.122c.04.104.079.21.125.317.07.173.112.281.13.318l.142.365c.322.806.5 1.438.533 1.876a.157.157 0 00.102.134.156.156 0 00.164-.039l.52-.542a.157.157 0 00.035-.051c.18-.468.42-.958.711-1.457l.217-.374c.104-.177.24-.393.407-.643a31.928 31.928 0 00-.104 2.694c0 .192.005.403.017.633a.159.159 0 00.155.145l.03-.003 1.041-.211.192-.046c.242-.058.367-.166.367-.327a.304.304 0 00-.063-.171.161.161 0 00-.178-.051zm1.279-1.695c0-.679.162-1.252.482-1.699.309-.44.683-.652 1.138-.652.349 0 .634.17.866.519.246.362.37.832.37 1.391 0 .675-.16 1.245-.477 1.695-.31.439-.68.652-1.133.652-.354 0-.642-.169-.876-.514-.246-.361-.37-.83-.37-1.392zm2.065-2.95c-.827 0-1.553.333-2.158.994a3.317 3.317 0 00-.907 2.319c0 .619.164 1.135.487 1.532.33.409.763.616 1.285.616.834 0 1.567-.333 2.173-.988.605-.65.913-1.432.913-2.327 0-.628-.165-1.145-.49-1.537a1.614 1.614 0 00-1.303-.609zm4.383 0c-.518 0-.955.142-1.299.422a1.356 1.356 0 00-.533 1.099c0 .243.07.463.206.655.128.181.37.415.738.718l.44.352c.386.313.58.624.58.923 0 .21-.077.375-.233.51-.162.14-.374.207-.637.207-.543 0-.836-.243-.922-.76a.148.148 0 00-.087-.115.145.145 0 00-.144.009l-.619.37a.155.155 0 00-.064.186c.213.588.701.885 1.448.885.59 0 1.09-.159 1.489-.471.411-.32.617-.731.617-1.216 0-.446-.245-.87-.727-1.26l-.356-.288c-.39-.32-.651-.556-.77-.701a.604.604 0 01-.155-.388c0-.259.08-.552.7-.552.222 0 .408.044.554.133.164.1.181.194.181.256a.792.792 0 01-.053.253.153.153 0 00.057.174c.194.138.406.055.52-.214l.303-.696a.15.15 0 00-.067-.197 2.451 2.451 0 00-1.167-.294zm4.665 0c-.885 0-1.634.319-2.231.946-.594.625-.897 1.408-.897 2.33 0 .653.166 1.185.493 1.578.333.404.785.607 1.34.607.668 0 1.273-.235 1.796-.701.336-.296.493-.533.493-.742a.28.28 0 00-.172-.256.154.154 0 00-.203.065 1.703 1.703 0 01-.634.636c-.284.17-.573.256-.855.256a1.08 1.08 0 01-.916-.451c-.239-.314-.36-.746-.36-1.282 0-.707.176-1.284.521-1.72a1.6 1.6 0 011.32-.639c.262 0 .49.055.685.161.162.09.246.186.246.285a.328.328 0 01-.038.121.152.152 0 00.109.214.48.48 0 00.108.016c.103 0 .25-.05.356-.278l.311-.684c.02-.04.02-.085.002-.125a.148.148 0 00-.09-.083 4.131 4.131 0 00-1.385-.254zm2.525 2.95c0-.679.162-1.252.482-1.699.31-.44.684-.652 1.139-.652.347 0 .633.17.866.519.245.362.37.832.37 1.391 0 .675-.16 1.245-.477 1.695-.311.439-.681.652-1.133.652-.355 0-.642-.169-.877-.514-.245-.361-.37-.83-.37-1.392zm2.064-2.95c-.826 0-1.551.333-2.156.994a3.316 3.316 0 00-.908 2.319c0 .619.164 1.135.488 1.532.329.409.763.616 1.284.616.835 0 1.567-.333 2.174-.988.605-.65.913-1.432.913-2.327 0-.628-.166-1.145-.49-1.537a1.616 1.616 0 00-1.305-.609zm8.176.026a.155.155 0 00-.2.025l-.535.583a.157.157 0 00-.04.124.15.15 0 00.072.109c.147.092.215.22.215.397 0 .319-.142.778-.429 1.362l-.567 1.16-.068-.378-.115-.609c-.164-.885-.246-1.537-.246-1.935 0-.128.009-.28.023-.455a.152.152 0 00-.085-.154.15.15 0 00-.175.028l-.556.526a.163.163 0 00-.043.069 5.112 5.112 0 01-.377.878l-.804 1.564a12.169 12.169 0 00-.192-2.001c-.09-.48-.196-.806-.324-.995a.725.725 0 00-.635-.324c-.267 0-.538.152-.808.451-.263.294-.397.588-.397.871 0 .07.027.227.271.282a.153.153 0 00.12-.023.153.153 0 00.067-.103.881.881 0 01.217-.451c.103-.115.208-.176.306-.176.131 0 .258.25.34.672.101.519.15 1.354.15 2.486 0 .566-.02.997-.06 1.277a.155.155 0 00.262.132l.62-.596a.176.176 0 00.036-.053c.19-.464.47-1.061.833-1.771l.468-.923.035.259c.014.11.046.285.09.522l.107.538c.13.682.22 1.282.269 1.782l.014.159a.154.154 0 00.103.133.184.184 0 00.052.007.15.15 0 00.112-.048l.557-.59a.119.119 0 00.03-.049c.06-.149.098-.242.116-.283l.525-1.146c.117-.239.22-.441.304-.607.527-1.026.78-1.686.78-2.016 0-.28-.147-.52-.439-.71z" fill="#B2282D"/></svg>