<svg width="23" height="23" viewBox="0 0 23 23" fill="none" xmlns="http://www.w3.org/2000/svg">
<g clip-path="url(#clip0_2_174)">
<path d="M7.48602 11.1215C7.48602 9.111 9.11641 7.48072 11.1281 7.48072C13.1399 7.48072 14.7712 9.111 14.7712 11.1215C14.7712 13.1321 13.1399 14.7624 11.1281 14.7624C9.11641 14.7624 7.48602 13.1321 7.48602 11.1215ZM5.51668 11.1215C5.51668 14.2189 8.02893 16.7296 11.1281 16.7296C14.2274 16.7296 16.7396 14.2189 16.7396 11.1215C16.7396 8.02417 14.2274 5.51343 11.1281 5.51343C8.02893 5.51343 5.51668 8.02417 5.51668 11.1215ZM15.6504 5.29107C15.6503 5.55028 15.7271 5.8037 15.8711 6.01928C16.0151 6.23487 16.2199 6.40293 16.4594 6.50222C16.699 6.60151 16.9627 6.62757 17.2171 6.5771C17.4715 6.52664 17.7052 6.40191 17.8887 6.21869C18.0721 6.03547 18.1971 5.802 18.2478 5.54779C18.2985 5.29358 18.2727 5.03006 18.1735 4.79054C18.0744 4.55102 17.9064 4.34626 17.6908 4.20217C17.4752 4.05807 17.2217 3.98111 16.9623 3.981H16.9618C16.6141 3.98117 16.2807 4.11923 16.0348 4.36486C15.789 4.6105 15.6507 4.94362 15.6504 5.29107ZM6.71318 20.0114C5.64773 19.9629 5.06863 19.7856 4.68378 19.6357C4.17357 19.4372 3.80953 19.2008 3.42679 18.8188C3.04404 18.4368 2.80712 18.0733 2.60936 17.5634C2.45934 17.179 2.28187 16.6001 2.23343 15.5353C2.18045 14.384 2.16987 14.0382 2.16987 11.1216C2.16987 8.20504 2.18133 7.86018 2.23343 6.70799C2.28195 5.64318 2.46074 5.06539 2.60936 4.67981C2.80799 4.1699 3.04456 3.80608 3.42679 3.42357C3.80901 3.04105 4.1727 2.80427 4.68378 2.60663C5.06845 2.4567 5.64773 2.27933 6.71318 2.23093C7.8651 2.17798 8.21112 2.16741 11.1281 2.16741C14.0452 2.16741 14.3916 2.17885 15.5444 2.23093C16.6099 2.27942 17.188 2.4581 17.5738 2.60663C18.084 2.80427 18.4481 3.04157 18.8308 3.42357C19.2136 3.80556 19.4496 4.1699 19.6483 4.67981C19.7983 5.06425 19.9757 5.64318 20.0242 6.70799C20.0772 7.86018 20.0877 8.20504 20.0877 11.1216C20.0877 14.0382 20.0772 14.3831 20.0242 15.5353C19.9757 16.6001 19.7973 17.1788 19.6483 17.5634C19.4496 18.0733 19.213 18.4372 18.8308 18.8188C18.4486 19.2004 18.084 19.4372 17.5738 19.6357C17.1892 19.7857 16.6099 19.963 15.5444 20.0114C14.3925 20.0644 14.0465 20.075 11.1281 20.075C8.20981 20.075 7.86475 20.0644 6.71318 20.0114ZM6.6227 0.266092C5.45933 0.31904 4.66437 0.503396 3.97013 0.773378C3.25115 1.05218 2.64249 1.42623 2.03428 2.03312C1.42606 2.64001 1.05276 3.24926 0.773783 3.96781C0.50364 4.66207 0.319173 5.45612 0.266193 6.61878C0.212339 7.78329 0.200012 8.15558 0.200012 11.1215C0.200012 14.0875 0.212339 14.4598 0.266193 15.6243C0.319173 16.787 0.50364 17.581 0.773783 18.2753C1.05276 18.9934 1.42615 19.6033 2.03428 20.21C2.64241 20.8166 3.25115 21.1901 3.97013 21.4697C4.66569 21.7397 5.45933 21.924 6.6227 21.977C7.78851 22.0299 8.16042 22.0431 11.1281 22.0431C14.0959 22.0431 14.4684 22.0308 15.6336 21.977C16.7971 21.924 17.5915 21.7397 18.2862 21.4697C19.0047 21.1901 19.6138 20.8168 20.222 20.21C20.8302 19.6031 21.2028 18.9934 21.4825 18.2753C21.7527 17.581 21.938 16.787 21.9901 15.6243C22.0431 14.4589 22.0554 14.0875 22.0554 11.1215C22.0554 8.15558 22.0431 7.78329 21.9901 6.61878C21.9371 5.45603 21.7527 4.66164 21.4825 3.96781C21.2028 3.24969 20.8293 2.64097 20.222 2.03312C19.6148 1.42527 19.0047 1.05218 18.287 0.773378C17.5915 0.503396 16.797 0.318166 15.6345 0.266092C14.4693 0.213144 14.0968 0.199951 11.129 0.199951C8.16129 0.199951 7.78851 0.212271 6.6227 0.266092Z" fill="#090909"/>
</g>
<defs>
<clipPath id="clip0_2_174">
<rect width="23" height="23" fill="white"/>
</clipPath>
</defs>
</svg>
